<svg width="48" height="48" viewBox="0 0 48 48" fill="none" xmlns="http://www.w3.org/2000/svg">
<g clip-path="url(#clip0_391_351)">
<rect width="48" height="48" rx="24" fill="#FF8855"/>
<path fill-rule="evenodd" clip-rule="evenodd" d="M23.7687 10.79C16.3082 10.79 10.2656 16.8032 10.2656 24.2274C10.2656 30.1734 14.1309 35.1956 19.4983 36.976C20.1735 37.0936 20.4267 36.6905 20.4267 36.3378C20.4267 36.0186 20.4098 34.9604 20.4098 33.8351C17.0171 34.4565 16.1395 33.012 15.8694 32.2562C15.7175 31.8698 15.0592 30.6773 14.4853 30.3581C14.0127 30.1062 13.3376 29.4847 14.4684 29.4679C15.5318 29.4511 16.2914 30.4421 16.5445 30.8452C17.7598 32.8776 19.7009 32.3066 20.4773 31.9538C20.5955 31.0804 20.9499 30.4925 21.3381 30.1566C18.3337 29.8207 15.1942 28.6617 15.1942 23.5219C15.1942 22.0606 15.7175 20.8512 16.5783 19.9106C16.4433 19.5747 15.9707 18.1974 16.7133 16.3497C16.7133 16.3497 17.8442 15.997 20.4267 17.7271C21.5069 17.4247 22.6547 17.2735 23.8024 17.2735C24.9502 17.2735 26.098 17.4247 27.1782 17.7271C29.7607 15.9802 30.8915 16.3497 30.8915 16.3497C31.6342 18.1974 31.1616 19.5747 31.0266 19.9106C31.8874 20.8512 32.4106 22.0438 32.4106 23.5219C32.4106 28.6785 29.2543 29.8207 26.2499 30.1566C26.7393 30.5765 27.1613 31.3827 27.1613 32.6425C27.1613 34.4397 27.1444 35.8842 27.1444 36.3378C27.1444 36.6905 27.3976 37.1104 28.0728 36.976C33.4065 35.1956 37.2717 30.1566 37.2717 24.2274C37.2717 16.8032 31.2291 10.79 23.7687 10.79Z" fill="white"/>
</g>
<rect x="1" y="1" width="46" height="46" rx="23" stroke="#4A4A4A" stroke-width="2"/>
<defs>
<clipPath id="clip0_391_351">
<rect width="48" height="48" rx="24" fill="white"/>
</clipPath>
</defs>
</svg>
