<svg width="48" height="48" viewBox="0 0 48 48" fill="none" xmlns="http://www.w3.org/2000/svg">
<g clip-path="url(#clip0_439_136)">
<rect width="48" height="48" rx="24" fill="white"/>
<path fill-rule="evenodd" clip-rule="evenodd" d="M23.7685 10.7896C16.3081 10.7896 10.2654 16.8028 10.2654 24.227C10.2654 30.173 14.1307 35.1952 19.4982 36.9756C20.1733 37.0932 20.4265 36.6901 20.4265 36.3373C20.4265 36.0182 20.4096 34.96 20.4096 33.8346C17.017 34.4561 16.1393 33.0116 15.8692 32.2558C15.7173 31.8694 15.059 30.6769 14.4851 30.3577C14.0125 30.1058 13.3374 29.4843 14.4683 29.4675C15.5316 29.4507 16.2912 30.4417 16.5444 30.8448C17.7596 32.8772 19.7007 32.3062 20.4771 31.9534C20.5953 31.08 20.9497 30.4921 21.3379 30.1562C18.3335 29.8202 15.1941 28.6613 15.1941 23.5215C15.1941 22.0602 15.7173 20.8508 16.5781 19.9102C16.4431 19.5743 15.9705 18.197 16.7131 16.3493C16.7131 16.3493 17.844 15.9966 20.4265 17.7267C21.5067 17.4243 22.6545 17.2731 23.8022 17.2731C24.95 17.2731 26.0978 17.4243 27.178 17.7267C29.7605 15.9798 30.8913 16.3493 30.8913 16.3493C31.634 18.197 31.1614 19.5743 31.0264 19.9102C31.8872 20.8508 32.4104 22.0434 32.4104 23.5215C32.4104 28.6781 29.2541 29.8202 26.2497 30.1562C26.7392 30.5761 27.1611 31.3823 27.1611 32.6421C27.1611 34.4393 27.1443 35.8838 27.1443 36.3373C27.1443 36.6901 27.3974 37.11 28.0726 36.9756C33.4063 35.1952 37.2715 30.1562 37.2715 24.227C37.2715 16.8028 31.2289 10.7896 23.7685 10.7896Z" fill="#4A4A4A"/>
</g>
<rect x="1" y="1" width="46" height="46" rx="23" stroke="#4A4A4A" stroke-width="2"/>
<defs>
<clipPath id="clip0_439_136">
<rect width="48" height="48" rx="24" fill="white"/>
</clipPath>
</defs>
</svg>
