<svg width="48" height="48" viewBox="0 0 48 48" fill="none" xmlns="http://www.w3.org/2000/svg">
<rect x="1" y="1" width="46" height="46" rx="23" fill="#5E6EFF"/>
<path d="M18.9793 32.9577V21.15H15.0546V32.9577H18.9797H18.9793ZM17.0177 19.5381C18.3861 19.5381 19.238 18.6314 19.238 17.4983C19.2124 16.3394 18.3861 15.458 17.0438 15.458C15.7005 15.458 14.8232 16.3394 14.8232 17.4982C14.8232 18.6313 15.6748 19.538 16.992 19.538H17.0174L17.0177 19.5381ZM21.1517 32.9577H25.0761V26.3645C25.0761 26.012 25.1017 25.6587 25.2053 25.407C25.4889 24.7016 26.1347 23.9714 27.2191 23.9714C28.6389 23.9714 29.2072 25.0541 29.2072 26.6416V32.9577H33.1315V26.1875C33.1315 22.5609 31.1956 20.8732 28.6135 20.8732C26.4965 20.8732 25.5668 22.0564 25.0502 22.8623H25.0764V21.1504H21.1519C21.2031 22.2581 21.1516 32.9581 21.1516 32.9581L21.1517 32.9577Z" fill="white"/>
<rect x="1" y="1" width="46" height="46" rx="23" stroke="#4A4A4A" stroke-width="2"/>
</svg>
