<svg width="289" height="108" viewBox="0 0 289 108" fill="none" xmlns="http://www.w3.org/2000/svg">
<g clip-path="url(#clip0_511_93)">
<path d="M45.1369 10.1562L42.19 9.80827C41.7111 9.75097 41.2834 9.49721 41.0051 9.10633L36.0485 2.11766C35.6352 1.53238 34.8984 1.27247 34.2067 1.46689L24.8114 4.12115C24.1218 4.31556 23.6286 4.92336 23.5815 5.63758L23.0126 14.1816C22.9798 14.6604 22.7486 15.1004 22.372 15.3992L18.9585 18.0903C18.584 18.387 18.099 18.5098 17.6263 18.428L9.18668 16.9934C8.48065 16.8747 7.77462 17.2124 7.42467 17.8365L2.65846 26.358C2.30851 26.9822 2.39037 27.7598 2.86106 28.3001L8.49906 34.7403C8.81627 35.1005 8.96361 35.5773 8.90631 36.0562L8.39674 40.3763C8.33944 40.8531 8.08363 41.2808 7.6948 41.5571L0.712273 46.5095C0.129031 46.925 -0.13087 47.6617 0.0635442 48.3534L2.71781 57.7466C2.91222 58.4383 3.52002 58.9295 4.23424 58.9766L12.7823 59.5455C13.2591 59.5782 13.7012 59.8095 14 60.186L16.689 63.5975C16.9857 63.974 17.1106 64.457 17.0287 64.9297L15.5921 73.3714C15.4734 74.0795 15.8111 74.7834 16.4352 75.1334L24.9567 79.9016C25.5809 80.2495 26.3585 80.1697 26.8988 79.697L29.5244 77.3988C29.3014 72.8905 28.8798 68.5458 28.2208 64.2216C22.5071 61.0476 18.009 55.6859 16.0914 48.8977C12.2727 35.3747 20.1373 21.3155 33.6603 17.4948C38.0009 16.2689 42.3987 16.2464 46.4937 17.2308C46.1499 14.6993 45.7038 12.3234 45.1369 10.1562Z" fill="white"/>
<path d="M138.75 18.5198C145.606 18.3952 144.49 28.7112 144.49 37.5519C144.49 46.3926 144.49 54.0198 144.49 54.0198H154.704V32.1902H154.692C154.496 24.3072 155.122 13.8191 142.174 13.8191C138.169 13.8191 135.429 16.0723 133.556 18.9312V13.8191H123.348V64.2521H133.352C133.352 34.9939 131.894 18.6445 138.75 18.5198Z" fill="white"/>
<path d="M188.88 12.5711H178.675V53.6108H188.88V12.5711Z" fill="white"/>
<path d="M204.855 25.1073C206.292 19.6085 209.799 18.5914 209.799 18.5914C209.799 18.5914 215.581 16.8069 215.789 31.7808V63.8427H226.003V31.7808H225.989C225.934 29.5481 226.132 27.1067 226.097 24.7533C227.587 19.5614 230.946 18.5914 230.946 18.5914C230.946 18.5914 236.729 16.8069 236.936 31.7808V63.8427H247.149C247.284 63.6852 247.422 63.5276 247.559 63.3721C250.031 60.5357 252.597 58.0001 255.065 55.7858C257.286 53.7946 259.424 52.0613 261.348 50.6021C266.134 46.9799 269.583 45.0501 269.583 45.0501C280.492 39.9094 282.347 34.6356 280.906 30.0986C280.707 29.4724 280.447 28.8605 280.138 28.265C277.591 23.3514 268.838 23.642 268.838 23.642C268.838 23.642 254.646 23.2348 251.369 35.399C249.497 42.3528 250.655 48.1648 253.053 52.6568C249.585 55.0511 247.149 56.7436 247.149 56.7436V33.4139C247.346 25.3038 248.424 13.4097 234.619 13.4097C230.135 13.4097 227.231 16.2318 225.363 19.5696C224.151 15.9985 221.063 13.4097 213.471 13.4097C209.468 13.4097 206.726 15.6629 204.855 18.5218V13.4097H194.647V59.7498H204.855V25.1073ZM268.838 26.8734C276.555 24.303 278.483 35.4808 270.622 40.6993C267.731 42.6168 264.133 45.0562 260.631 47.4506C259.365 38.9946 262.545 28.5003 268.838 26.8734ZM247.143 33.6595L247.137 35.8737C247.121 35.182 247.127 34.4392 247.143 33.6595Z" fill="white"/>
<path d="M182.786 10.0047C185.275 9.45218 186.965 7.05168 186.66 4.52021C186.66 4.50998 186.658 4.49974 186.656 4.48746C186.369 1.96213 184.227 -0.000427246 181.624 -0.000427246H150.626C148.023 -0.000427246 145.88 1.96008 145.594 4.48542C145.592 4.49565 145.59 4.50793 145.59 4.51816C145.285 7.04759 146.975 9.45014 149.464 10.0027C151.796 10.5204 153.939 9.42967 154.997 7.62674C155.908 6.07347 157.615 5.16484 159.413 5.17303L161.022 5.18122V59.7501H171.228V5.18326L172.836 5.17508C174.637 5.16689 176.342 6.07757 177.252 7.62878C178.31 9.43376 180.453 10.5225 182.786 10.0047Z" fill="white"/>
<path d="M87.3043 59.1157C90.8467 58.8006 94.8087 57.1798 97.4691 54.1878C99.0592 52.4054 100.183 50.1338 100.479 47.3629C100.533 46.884 100.559 46.3888 100.559 45.8792C100.559 45.8792 98.9118 47.1009 96.5502 48.2183C96.5072 47.4877 96.4786 46.7101 96.4663 45.8792V13.8193L83.0538 13.8705C86.4161 17.3188 86.2524 21.4833 86.2524 30.852V45.8792H86.2647C86.2933 46.9904 86.2565 48.1528 86.2197 49.3295C84.8322 48.7115 83.5613 47.6289 82.5319 45.9017C82.5278 45.8935 82.5238 45.8874 82.5197 45.8792C79.7835 40.3108 74.9764 31.7566 70.2347 31.7566H70.2266C75.3448 30.3404 81.0421 26.6834 81.0421 17.3986C81.0421 0.543931 68.0348 -0.000427246 59.5543 -0.000427246H54.7962L47.4412 0.00161922L42.147 -0.000427246C43.8436 1.74111 45.1881 3.76916 46.066 5.98752C51.3438 19.3059 50.0198 45.3553 47.4412 64.2544H59.6955C58.5965 58.2971 57.9498 53.2076 57.6122 48.7197C57.1374 42.4002 57.2786 37.2697 57.649 32.5792H62.2638C62.2638 32.5792 66.2462 33.359 70.028 41.201C71.041 43.3007 71.9128 45.21 72.7028 46.8799C72.7028 46.8799 72.8747 47.3076 73.2042 48.0055C74.3706 50.4653 77.4976 56.2732 81.9098 58.3626C83.3464 59.0441 85.2558 59.2979 87.3043 59.1157ZM59.6607 27.9727H57.649V5.12391H63.8477C63.8477 5.12391 72.8829 5.25489 72.8829 16.2464C72.8829 27.238 62.2781 27.9727 59.6607 27.9727Z" fill="white"/>
<path d="M102.153 21.4831C103.782 21.4831 105.172 20.464 105.727 19.0294C105.727 19.0294 105.727 19.0315 105.727 19.0335C106.819 21.4197 107.401 24.0351 107.401 26.7098V52.5525C105.964 58.0534 102.456 59.0705 102.456 59.0705C102.456 59.0705 99.6322 59.9402 97.8621 55.3562C95.2569 58.2642 91.4198 59.8686 87.949 60.2267C89.625 62.6498 92.8114 64.2521 98.785 64.2521C102.788 64.2521 105.528 61.999 107.401 59.1401V64.2521H117.608V13.8191H102.162C102.162 13.8191 102.156 13.8191 102.153 13.8191C100.037 13.8191 98.3205 15.5341 98.3205 17.6521C98.3205 19.7702 100.035 21.4852 102.153 21.4852V21.4831Z" fill="white"/>
<path d="M64.8913 57.02C63.0536 63.5216 61.2568 71.2715 52.6412 87.7456L42.6381 61.4342C42.3311 60.3107 41.928 59.1831 41.224 58.3359C40.518 57.4866 39.5132 56.9197 38.0008 56.9197H29.1478C30.9037 65.0401 31.7427 72.9496 31.9474 81.5837V81.5959C31.9474 81.5959 31.9474 81.6 31.9474 81.6021C31.7693 85.2612 30.4371 106.847 23.782 106.847H34.3663H37.9988C43.7739 92.7533 40.4566 74.2369 40.4566 74.2369L49.3853 106.847H54.9026C54.9026 106.847 62.3496 80.9329 64.9568 72.3234V106.847H75.1646V56.9197H64.9302L64.8913 57.02Z" fill="white"/>
<path d="M151.901 76.8244C149.527 79.581 146.926 85.6345 144.581 91.5201C144.515 91.6818 144.482 91.8537 144.482 92.0276V105.71C144.482 106.463 145.094 107.075 145.847 107.075H152.944C153.697 107.075 154.307 106.463 154.307 105.71V77.7044C154.309 76.4315 152.732 75.8606 151.901 76.8244Z" fill="white"/>
<path d="M160.545 68.1804H154.309V56.9187H144.482V75.1445C144.482 78.3206 143.878 81.462 142.741 84.4252C142.127 86.0194 141.507 87.7712 140.885 89.6969C136.72 102.571 130.755 103.146 130.405 103.146C125.872 103.146 121.034 99.0615 121.034 87.7262C121.034 74.3751 126.7 73.3682 126.7 73.3682H138.562V68.381H126.021C117.841 68.381 111.209 75.0135 111.209 83.1933V87.7282C111.209 103.897 122.845 107.075 129.797 107.075C133.658 107.075 137.227 104.816 139.442 101.744C140.578 100.165 141.101 98.4271 141.807 96.6569C142.712 94.3915 143.582 92.1117 144.482 89.8422C147.677 81.8058 151.362 73.3702 154.309 73.3702H158.697C160.109 73.3702 161.503 73.7816 162.618 74.6309C164.558 76.1023 166.77 79.2722 166.77 86.0665V107.073H176.601C176.601 107.073 176.601 86.0665 176.589 86.0665C176.401 78.4782 173.612 68.1804 160.545 68.1804Z" fill="white"/>
<path d="M189.813 63.9806C190.892 61.3764 189.655 58.3908 187.051 57.3121C184.447 56.2334 181.461 57.4701 180.383 60.0743C179.304 62.6785 180.541 65.6641 183.145 66.7428C185.749 67.8215 188.735 66.5849 189.813 63.9806Z" fill="white"/>
<path d="M190.202 69.9049H179.995V106.85H190.202V69.9049Z" fill="white"/>
<path d="M97.7779 66.8555H86.9419C84.3388 66.8555 82.1962 68.816 81.9097 71.3413C81.9097 71.3536 81.9097 71.3638 81.9056 71.3741C81.6027 73.9055 83.2931 76.306 85.7795 76.8586C88.0531 77.3641 90.1467 76.3408 91.2313 74.6197C92.013 73.3775 93.2593 72.5364 94.6571 72.1988C97.2254 72.8332 99.1286 75.1539 99.1286 77.9186V81.7373H95.9566C88.1248 81.7373 79.0405 85.8078 79.0405 96.9323C79.0405 103.929 82.276 108 89.1603 108C93.5254 108 97.0944 106.285 99.1286 105.028V106.956H109.312V78.3893C109.312 72.0187 104.149 66.8555 97.7779 66.8555ZM99.1286 101.844C98.1176 102.621 96.724 103.432 95.0213 103.772C92.5595 104.257 88.7387 103.301 88.7387 95.9889C88.7387 95.7638 88.7469 95.5428 88.7592 95.3238C89.017 90.5555 93.1243 86.9067 97.8925 86.9067H99.1286V101.844Z" fill="white"/>
<path d="M247.276 100.796C244.745 99.7221 242.97 97.4648 241.88 94.6325C240.036 96.018 237.981 97.6592 235.841 99.5481C238.951 103.305 242.778 105.591 245.342 106.209C256.87 108.982 259.966 105.436 259.966 105.436V97.3236C259.966 97.3236 255.296 104.198 247.276 100.796Z" fill="white"/>
<path d="M249.759 88.0566C258.135 84.111 261.172 80.0856 261.479 76.3754C261.628 74.5847 261.141 72.8698 260.312 71.2715C257.764 66.3579 249.014 66.6485 249.014 66.6485C249.014 66.6485 234.82 66.2413 231.545 78.4055C229.673 85.3614 230.831 91.1733 233.229 95.6633C229.761 98.0576 227.325 99.7501 227.325 99.7501V85.0217H227.311C227.117 77.1387 230.076 66.6485 214.793 66.6485C210.79 66.6485 208.048 68.9017 206.177 71.7606V66.6485H195.969V106.849H206.177V78.3461C207.614 72.8473 211.122 71.8302 211.122 71.8302C211.122 71.8302 216.903 70.0457 217.112 85.0217V106.849H227.325C229.924 103.823 232.638 101.129 235.243 98.7923C237.462 96.8011 239.6 95.0698 241.524 93.6127C246.308 89.9864 249.759 88.0566 249.759 88.0566ZM249.014 69.8799C256.729 67.3096 258.659 78.4894 250.796 83.7058C247.905 85.6254 244.309 88.0648 240.807 90.4591C239.539 82.0032 242.719 71.5068 249.014 69.8799Z" fill="white"/>
<path d="M279.256 82.6393C274.721 80.1836 270.197 77.7544 270.197 73.9767C270.197 70.1989 275.601 70.4608 275.601 70.4608H285.371V66.6483H272.456C268.482 66.6483 263.009 66.6483 263.009 75.4501C263.009 81.6223 273.291 88.7194 277.944 92.929C282.598 97.1365 279.735 102.983 271.979 102.983C271.009 102.983 270.123 102.873 269.312 102.68C269.308 102.68 269.302 102.68 269.296 102.676C267.299 102.101 264.792 100.523 264.065 96.2892C263.883 95.2333 263.904 94.3635 264.069 93.6514C264.272 94.8915 265.346 95.8349 266.642 95.8349C268.082 95.8349 269.251 94.6685 269.251 93.2277C269.251 92.0019 268.406 90.9746 267.268 90.6942C266.461 90.4953 265.631 90.6942 265.631 90.6942C263.482 91.2713 259.627 95.223 261.757 101.491C264.71 110.917 287.323 111.067 288.445 95.3847C288.928 88.6191 283.791 85.0951 279.256 82.6393Z" fill="white"/>
<path d="M267.1 57.7891C264.593 56.725 262.827 54.4984 261.737 51.7029C259.895 53.0986 257.856 54.746 255.74 56.6308C258.835 60.3349 262.623 62.5901 265.166 63.202C276.694 65.975 279.79 62.4284 279.79 62.4284V54.3142C279.79 54.3142 275.122 61.1883 267.1 57.7891Z" fill="white"/>
<path d="M43.7207 36.9632L43.7228 21.2832H39.8161V36.9632C37.786 37.747 36.3432 39.7177 36.3432 42.0261C36.3432 42.8079 36.511 43.5528 36.8078 44.224L28.0366 52.9952L30.7993 55.7579L39.5705 46.9868C40.2417 47.2856 40.9866 47.4513 41.7684 47.4513C44.7644 47.4513 47.1936 45.0222 47.1936 42.0261C47.1936 39.7177 45.7529 37.749 43.7207 36.9632Z" fill="white"/>
</g>
<defs>
<clipPath id="clip0_511_93">
<rect width="288.478" height="108" fill="white"/>
</clipPath>
</defs>
</svg>
