<svg width="1411" height="529" viewBox="0 0 1411 529" fill="none" xmlns="http://www.w3.org/2000/svg">
<g clip-path="url(#clip0_339_473)">
<path d="M221.2 50.11L206.8 48.41C204.46 48.13 202.37 46.89 201.01 44.98L176.79 10.83C174.77 7.96999 171.17 6.69999 167.79 7.64999L121.88 20.62C118.51 21.57 116.1 24.54 115.87 28.03L113.09 69.78C112.93 72.12 111.8 74.27 109.96 75.73L93.2802 88.88C91.4501 90.33 89.0801 90.93 86.7701 90.53L45.5301 83.52C42.0801 82.94 38.6301 84.59 36.9201 87.64L13.6301 129.28C11.9201 132.33 12.3201 136.13 14.6201 138.77L42.1701 170.24C43.7201 172 44.4401 174.33 44.1601 176.67L41.6701 197.78C41.3901 200.11 40.1401 202.2 38.2401 203.55L4.12015 227.75C1.27015 229.78 0.000148892 233.38 0.950149 236.76L13.9201 282.66C14.8701 286.04 17.8401 288.44 21.3301 288.67L63.1001 291.45C65.4301 291.61 67.5902 292.74 69.0502 294.58L82.1902 311.25C83.6402 313.09 84.2502 315.45 83.8502 317.76L76.8302 359.01C76.2502 362.47 77.9001 365.91 80.9501 367.62L122.59 390.92C125.64 392.62 129.44 392.23 132.08 389.92L144.91 378.69C143.82 356.66 141.76 335.43 138.54 314.3C110.62 298.79 88.6402 272.59 79.2701 239.42C60.6101 173.34 99.0401 104.64 165.12 85.97C186.33 79.98 207.82 79.87 227.83 84.68C226.15 72.31 223.97 60.7 221.2 50.11Z" fill="#5E6EFF"/>
<path d="M208.291 183.1V106.48H189.201V183.1C179.281 186.93 172.231 196.56 172.231 207.84C172.231 211.66 173.051 215.3 174.501 218.58L131.641 261.44L145.141 274.94L188.001 232.08C191.281 233.54 194.921 234.35 198.741 234.35C213.381 234.35 225.251 222.48 225.251 207.84C225.251 196.56 218.211 186.94 208.281 183.1H208.291Z" fill="#5E6EFF"/>
<path d="M678.641 90.9802C712.141 90.3711 706.691 140.78 706.691 183.98C706.691 227.18 706.691 264.45 706.691 264.45H756.601V157.78H756.541C755.581 119.26 758.641 68.0103 695.371 68.0103C675.801 68.0103 662.411 79.0203 653.261 92.9903V68.0103H603.381V314.45H652.261C652.261 171.48 645.141 91.5893 678.641 90.9802Z" fill="#FF8855"/>
<path d="M923.6 61.9102H873.73V262.45H923.6V61.9102Z" fill="#FF8855"/>
<path d="M1001.66 123.17C1008.68 96.3003 1025.82 91.3303 1025.82 91.3303C1025.82 91.3303 1054.07 82.6103 1055.09 155.78V312.45H1105V155.78H1104.93C1104.66 144.87 1105.63 132.94 1105.46 121.44C1112.74 96.0703 1129.15 91.3303 1129.15 91.3303C1129.15 91.3303 1157.41 82.6103 1158.42 155.78V312.45H1208.33C1208.99 311.68 1209.66 310.91 1210.33 310.15C1222.41 296.29 1234.95 283.9 1247.01 273.08C1257.86 263.35 1268.31 254.88 1277.71 247.75C1301.1 230.05 1317.95 220.62 1317.95 220.62C1371.26 195.5 1380.32 169.73 1373.28 147.56C1372.31 144.5 1371.04 141.51 1369.53 138.6C1357.08 114.59 1314.31 116.01 1314.31 116.01C1314.31 116.01 1244.96 114.02 1228.95 173.46C1219.8 207.44 1225.46 235.84 1237.18 257.79C1220.23 269.49 1208.33 277.76 1208.33 277.76V163.76C1209.29 124.13 1214.56 66.0103 1147.1 66.0103C1125.19 66.0103 1111 79.8003 1101.87 96.1103C1095.95 78.6603 1080.86 66.0103 1043.76 66.0103C1024.2 66.0103 1010.8 77.0203 1001.66 90.9903V66.0103H951.78V292.45H1001.66V123.17ZM1314.31 131.8C1352.02 119.24 1361.44 173.86 1323.03 199.36C1308.9 208.73 1291.32 220.65 1274.21 232.35C1268.02 191.03 1283.56 139.75 1314.31 131.8ZM1208.3 164.96L1208.27 175.78C1208.19 172.4 1208.22 168.77 1208.3 164.96Z" fill="#FF8855"/>
<path d="M893.82 49.3702C905.98 46.6702 914.24 34.9402 912.75 22.5702C912.75 22.5202 912.74 22.4702 912.73 22.4102C911.33 10.0702 900.86 0.480225 888.14 0.480225H736.67C723.95 0.480225 713.48 10.0602 712.08 22.4002C712.07 22.4502 712.06 22.5102 712.06 22.5602C710.57 34.9202 718.83 46.6602 730.99 49.3602C742.39 51.8902 752.86 46.5602 758.03 37.7502C762.48 30.1602 770.82 25.7202 779.61 25.7602L787.47 25.8002V292.45H837.34V25.8102L845.2 25.7702C854 25.7302 862.33 30.1802 866.78 37.7602C871.95 46.5802 882.42 51.9002 893.82 49.3702Z" fill="#FF8855"/>
<path d="M427.251 289.35C444.561 287.81 463.921 279.89 476.921 265.27C484.691 256.56 490.181 245.46 491.631 231.92C491.891 229.58 492.021 227.16 492.021 224.67C492.021 224.67 483.971 230.64 472.431 236.1C472.221 232.53 472.081 228.73 472.021 224.67V68.0102L406.481 68.2602C422.911 85.1102 422.111 105.46 422.111 151.24V224.67H422.171C422.311 230.1 422.131 235.78 421.951 241.53C415.171 238.51 408.961 233.22 403.931 224.78C403.911 224.74 403.891 224.71 403.871 224.67C390.501 197.46 367.011 155.66 343.841 155.66H343.801C368.811 148.74 396.651 130.87 396.651 85.5002C396.651 3.14022 333.091 0.480225 291.651 0.480225H268.401L232.461 0.490225L206.591 0.480225C214.881 8.99022 221.451 18.9002 225.741 29.7402C251.531 94.8202 245.061 222.11 232.461 314.46H292.341C286.971 285.35 283.811 260.48 282.161 238.55C279.841 207.67 280.531 182.6 282.341 159.68H304.891C304.891 159.68 324.351 163.49 342.831 201.81C347.781 212.07 352.041 221.4 355.901 229.56C355.901 229.56 356.741 231.65 358.351 235.06C364.051 247.08 379.331 275.46 400.891 285.67C407.911 289 417.241 290.24 427.251 289.35ZM292.171 137.17H282.341V25.5202H312.631C312.631 25.5202 356.781 26.1602 356.781 79.8702C356.781 133.58 304.961 137.17 292.171 137.17Z" fill="#FF8855"/>
<path d="M499.81 105.46C507.77 105.46 514.56 100.48 517.27 93.4703C517.27 93.4703 517.27 93.4803 517.27 93.4903C522.61 105.15 525.45 117.93 525.45 131V257.28C518.43 284.16 501.29 289.13 501.29 289.13C501.29 289.13 487.49 293.38 478.84 270.98C466.11 285.19 447.36 293.03 430.4 294.78C438.59 306.62 454.16 314.45 483.35 314.45C502.91 314.45 516.3 303.44 525.45 289.47V314.45H575.33V68.0103H499.85C499.85 68.0103 499.82 68.0103 499.81 68.0103C489.47 68.0103 481.08 76.3903 481.08 86.7403C481.08 97.0903 489.46 105.47 499.81 105.47V105.46Z" fill="#FF8855"/>
<path d="M318.656 292.942C309.894 322.893 301.326 358.594 260.246 434.485L212.549 313.277C211.086 308.101 209.163 302.907 205.807 299.004C202.44 295.092 197.649 292.48 190.438 292.48H148.226C156.598 329.888 160.599 366.325 161.574 406.099V406.156C161.574 406.156 161.574 406.175 161.574 406.184C160.725 423.04 154.373 522.48 122.641 522.48H173.108H190.428C217.965 457.554 202.148 372.255 202.148 372.255L244.721 522.48H271.028C271.028 522.48 306.537 403.101 318.968 363.44V522.48H367.641V292.48H318.842L318.656 292.942Z" fill="#FF8855"/>
<path d="M742.9 375.88C731.3 389.35 718.59 418.93 707.13 447.69C706.81 448.48 706.65 449.32 706.65 450.17V517.03C706.65 520.71 709.64 523.7 713.32 523.7H748C751.68 523.7 754.66 520.71 754.66 517.03V380.18C754.67 373.96 746.96 371.17 742.9 375.88Z" fill="#FF8855"/>
<path d="M785.141 333.64H754.671V278.61H706.651V367.67C706.651 383.19 703.701 398.54 698.141 413.02C695.141 420.81 692.111 429.37 689.071 438.78C668.721 501.69 639.571 504.5 637.861 504.5C615.711 504.5 592.071 484.54 592.071 429.15C592.071 363.91 619.761 358.99 619.761 358.99H677.721V334.62H616.441C576.471 334.62 544.061 367.03 544.061 407V429.16C544.061 508.17 600.921 523.7 634.891 523.7C653.761 523.7 671.201 512.66 682.021 497.65C687.571 489.93 690.131 481.44 693.581 472.79C698.001 461.72 702.251 450.58 706.651 439.49C722.261 400.22 740.271 359 754.671 359H776.111C783.011 359 789.821 361.01 795.271 365.16C804.751 372.35 815.561 387.84 815.561 421.04V523.69H863.601C863.601 523.69 863.601 421.04 863.541 421.04C862.621 383.96 848.991 333.64 785.141 333.64Z" fill="#FF8855"/>
<path d="M928.16 313.121C933.432 300.396 927.389 285.807 914.663 280.536C901.938 275.265 887.348 281.308 882.077 294.033C876.806 306.759 882.849 321.348 895.575 326.619C908.3 331.89 922.889 325.847 928.16 313.121Z" fill="#FF8855"/>
<path d="M930.061 342.07H880.181V522.6H930.061V342.07Z" fill="#FF8855"/>
<path d="M478.431 327.17H425.481C412.761 327.17 402.291 336.75 400.891 349.09C400.891 349.15 400.891 349.2 400.871 349.25C399.391 361.62 407.651 373.35 419.801 376.05C430.911 378.52 441.141 373.52 446.441 365.11C450.261 359.04 456.351 354.93 463.181 353.28C475.731 356.38 485.031 367.72 485.031 381.23V399.89H469.531C431.261 399.89 386.871 419.78 386.871 474.14C386.871 508.33 402.681 528.22 436.321 528.22C457.651 528.22 475.091 519.84 485.031 513.7V523.12H534.791V383.53C534.791 352.4 509.561 327.17 478.431 327.17ZM485.031 498.14C480.091 501.94 473.281 505.9 464.961 507.56C452.931 509.93 434.261 505.26 434.261 469.53C434.261 468.43 434.301 467.35 434.361 466.28C435.621 442.98 455.691 425.15 478.991 425.15H485.031V498.14Z" fill="#FF8855"/>
<path d="M1208.95 493.02C1196.58 487.77 1187.91 476.74 1182.58 462.9C1173.57 469.67 1163.53 477.69 1153.07 486.92C1168.27 505.28 1186.97 516.45 1199.5 519.47C1255.83 533.02 1270.96 515.69 1270.96 515.69V476.05C1270.96 476.05 1248.14 509.64 1208.95 493.02Z" fill="#FF8855"/>
<path d="M1221.08 430.77C1262.01 411.49 1276.85 391.82 1278.35 373.69C1279.08 364.94 1276.7 356.56 1272.65 348.75C1260.2 324.74 1217.44 326.16 1217.44 326.16C1217.44 326.16 1148.08 324.17 1132.08 383.61C1122.93 417.6 1128.59 446 1140.31 467.94C1123.36 479.64 1111.46 487.91 1111.46 487.91V415.94H1111.39C1110.44 377.42 1124.9 326.16 1050.22 326.16C1030.66 326.16 1017.26 337.17 1008.12 351.14V326.16H958.24V522.6H1008.12V383.32C1015.14 356.45 1032.28 351.48 1032.28 351.48C1032.28 351.48 1060.53 342.76 1061.55 415.94V522.6H1111.46C1124.16 507.81 1137.42 494.65 1150.15 483.23C1160.99 473.5 1171.44 465.04 1180.84 457.92C1204.22 440.2 1221.08 430.77 1221.08 430.77ZM1217.44 341.95C1255.14 329.39 1264.57 384.02 1226.15 409.51C1212.02 418.89 1194.45 430.81 1177.34 442.51C1171.14 401.19 1186.68 349.9 1217.44 341.95Z" fill="#FF8855"/>
<path d="M1365.22 404.3C1343.06 392.3 1320.95 380.43 1320.95 361.97C1320.95 343.51 1347.36 344.79 1347.36 344.79H1395.1V326.16H1331.99C1312.57 326.16 1285.83 326.16 1285.83 369.17C1285.83 399.33 1336.07 434.01 1358.81 454.58C1381.55 475.14 1367.56 503.71 1329.66 503.71C1324.92 503.71 1320.59 503.17 1316.63 502.23C1316.61 502.23 1316.58 502.23 1316.55 502.21C1306.79 499.4 1294.54 491.69 1290.99 471C1290.1 465.84 1290.2 461.59 1291.01 458.11C1292 464.17 1297.25 468.78 1303.58 468.78C1310.62 468.78 1316.33 463.08 1316.33 456.04C1316.33 450.05 1312.2 445.03 1306.64 443.66C1302.7 442.688 1298.64 443.66 1298.64 443.66C1288.14 446.48 1269.3 465.79 1279.71 496.42C1294.14 542.48 1404.64 543.21 1410.12 466.58C1412.48 433.52 1387.38 416.3 1365.22 404.3Z" fill="#FF8855"/>
<path d="M1305.82 282.87C1293.57 277.67 1284.94 266.79 1279.61 253.13C1270.61 259.95 1260.65 268 1250.31 277.21C1265.43 295.31 1283.94 306.33 1296.37 309.32C1352.7 322.87 1367.83 305.54 1367.83 305.54V265.89C1367.83 265.89 1345.02 299.48 1305.82 282.87Z" fill="#FF8855"/>
</g>
<defs>
<clipPath id="clip0_339_473">
<rect width="1409.64" height="527.74" fill="white" transform="translate(0.640625 0.480225)"/>
</clipPath>
</defs>
</svg>
