<svg width="806" height="302" viewBox="0 0 806 302" fill="none" xmlns="http://www.w3.org/2000/svg">
<g clip-path="url(#clip0_139_692)">
<path d="M126.108 28.3764L117.875 27.4044C116.537 27.2443 115.342 26.5354 114.564 25.4433L100.716 5.91773C99.5612 4.2825 97.5029 3.55637 95.5703 4.09954L69.3209 11.5152C67.3941 12.0584 66.0161 13.7565 65.8846 15.752L64.2951 39.6229C64.2036 40.9608 63.5576 42.1901 62.5055 43.0249L52.9686 50.5435C51.9223 51.3726 50.5672 51.7156 49.2464 51.4869L25.6671 47.4789C23.6945 47.1473 21.722 48.0907 20.7443 49.8345L7.42799 73.6426C6.45028 75.3864 6.67899 77.5591 7.99403 79.0685L23.746 97.0618C24.6322 98.0681 25.0439 99.4003 24.8838 100.738L23.4601 112.808C23.3 114.14 22.5853 115.335 21.499 116.107L1.99057 129.944C0.361053 131.104 -0.365081 133.163 0.17809 135.095L7.5938 161.339C8.13697 163.271 9.8351 164.644 11.8305 164.775L35.7129 166.365C37.0451 166.456 38.2801 167.102 39.1149 168.154L46.6278 177.685C47.4568 178.738 47.8056 180.087 47.5769 181.408L43.5632 204.993C43.2315 206.971 44.1749 208.938 45.9188 209.916L69.7268 223.238C71.4707 224.21 73.6434 223.987 75.1528 222.666L82.4885 216.245C81.8653 203.649 80.6874 191.511 78.8464 179.429C62.8829 170.561 50.3156 155.581 44.9582 136.616C34.2892 98.8343 56.2619 59.5544 94.0437 48.8797C106.171 45.4549 118.458 45.392 129.899 48.1421C128.938 41.0695 127.692 34.4313 126.108 28.3764V28.3764Z" fill="#343434"/>
<path d="M387.655 51.7442C406.809 51.3959 403.693 80.2178 403.693 104.918C403.693 129.618 403.693 150.927 403.693 150.927H432.23V89.9377H432.196C431.647 67.9135 433.396 38.6109 397.221 38.6109C386.032 38.6109 378.376 44.906 373.144 52.8934V38.6109H344.625V179.515H372.573C372.573 97.7708 368.502 52.0924 387.655 51.7442Z" fill="#343434"/>
<path d="M527.713 35.1231H499.199V149.784H527.713V35.1231Z" fill="#343434"/>
<path d="M572.344 70.1491C576.357 54.7859 586.157 51.9443 586.157 51.9443C586.157 51.9443 602.309 46.9585 602.893 88.7941V178.372H631.429V88.7941H631.389C631.235 82.5562 631.789 75.7352 631.692 69.1599C635.854 54.6544 645.237 51.9443 645.237 51.9443C645.237 51.9443 661.395 46.9585 661.972 88.7941V178.372H690.509C690.886 177.931 691.269 177.491 691.652 177.057C698.559 169.132 705.729 162.048 712.625 155.861C718.828 150.298 724.803 145.455 730.178 141.379C743.551 131.259 753.185 125.867 753.185 125.867C783.666 111.504 788.846 96.7702 784.821 84.0943C784.266 82.3447 783.54 80.6351 782.676 78.9713C775.558 65.2434 751.104 66.0553 751.104 66.0553C751.104 66.0553 711.452 64.9175 702.299 98.9028C697.067 118.331 700.303 134.569 707.004 147.119C697.313 153.809 690.509 158.537 690.509 158.537V93.3568C691.058 70.698 694.071 37.4673 655.5 37.4673C642.973 37.4673 634.86 45.3519 629.639 54.6773C626.255 44.7001 617.627 37.4673 596.415 37.4673C585.231 37.4673 577.569 43.7624 572.344 51.7499V37.4673H543.824V166.936H572.344V70.1491V70.1491ZM751.104 75.0834C772.665 67.9021 778.051 99.1315 756.09 113.711C748.011 119.069 737.959 125.884 728.176 132.574C724.637 108.949 733.522 79.6288 751.104 75.0834ZM690.492 94.0429L690.475 100.229C690.429 98.2968 690.446 96.2213 690.492 94.0429Z" fill="#343434"/>
<path d="M510.686 27.9533C517.639 26.4095 522.361 19.7028 521.51 12.6302C521.51 12.6016 521.504 12.573 521.498 12.5387C520.698 5.48317 514.711 0 507.439 0H420.834C413.561 0 407.575 5.47745 406.775 12.533C406.769 12.5615 406.763 12.5958 406.763 12.6244C405.911 19.6914 410.634 26.4038 417.587 27.9476C424.105 29.3941 430.091 26.3466 433.047 21.3095C435.591 16.9698 440.36 14.4312 445.386 14.4541L449.88 14.4769V166.936H478.393V14.4827L482.887 14.4598C487.919 14.4369 492.681 16.9812 495.226 21.3152C498.182 26.3581 504.168 29.3998 510.686 27.9533Z" fill="#343434"/>
<path d="M243.918 165.164C253.815 164.283 264.885 159.755 272.317 151.396C276.76 146.416 279.899 140.069 280.728 132.328C280.877 130.99 280.951 129.606 280.951 128.183C280.951 128.183 276.348 131.596 269.75 134.718C269.63 132.677 269.55 130.504 269.516 128.183V38.6109L232.043 38.7538C241.437 48.3879 240.979 60.0232 240.979 86.1984V128.183H241.014C241.094 131.287 240.991 134.535 240.888 137.822C237.011 136.096 233.461 133.071 230.585 128.246C230.573 128.223 230.562 128.205 230.55 128.183C222.906 112.625 209.475 88.7255 196.228 88.7255H196.205C210.505 84.769 226.422 74.5516 226.422 48.6109C226.422 1.52088 190.081 0 166.388 0H153.094L132.545 0.00571759L117.754 0C122.494 4.86567 126.25 10.5318 128.703 16.7297C143.449 53.9397 139.749 126.719 132.545 179.521H166.782C163.712 162.877 161.905 148.657 160.962 136.119C159.635 118.463 160.03 104.129 161.065 91.024H173.958C173.958 91.024 185.084 93.2024 195.65 115.112C198.481 120.978 200.916 126.313 203.123 130.979C203.123 130.979 203.603 132.173 204.524 134.123C207.783 140.996 216.52 157.222 228.847 163.06C232.86 164.964 238.195 165.673 243.918 165.164ZM166.685 78.1537H161.065V14.3168H178.383C178.383 14.3168 203.626 14.6828 203.626 45.3919C203.626 76.1011 173.998 78.1537 166.685 78.1537Z" fill="#343434"/>
<path d="M285.405 60.0233C289.956 60.0233 293.838 57.1759 295.387 53.1679C295.387 53.1679 295.387 53.1736 295.387 53.1793C298.441 59.846 300.064 67.1531 300.064 74.626V146.828C296.051 162.197 286.251 165.038 286.251 165.038C286.251 165.038 278.36 167.468 273.415 154.661C266.136 162.785 255.416 167.268 245.719 168.269C250.401 175.038 259.304 179.515 275.993 179.515C287.177 179.515 294.833 173.22 300.064 165.233V179.515H328.584V38.6109H285.427C285.427 38.6109 285.41 38.6109 285.405 38.6109C279.493 38.6109 274.695 43.4022 274.695 49.3199C274.695 55.2376 279.487 60.029 285.405 60.029V60.0233Z" fill="#343434"/>
<path d="M181.3 159.309C176.166 177.474 171.146 199.126 147.075 245.153L119.127 171.642C118.27 168.503 117.143 165.353 115.176 162.986C113.204 160.613 110.396 159.029 106.171 159.029H81.4368C86.3425 181.716 88.6867 203.815 89.2585 227.937V227.972C89.2585 227.972 89.2585 227.983 89.2585 227.989C88.7611 238.212 85.0389 298.521 66.4453 298.521H96.0167H106.165C122.3 259.144 113.032 207.411 113.032 207.411L137.978 298.521H153.393C153.393 298.521 174.199 226.119 181.483 202.065V298.521H210.003V159.029H181.409L181.3 159.309V159.309Z" fill="#343434"/>
<path d="M424.394 214.638C417.762 222.34 410.495 239.253 403.942 255.696C403.759 256.148 403.668 256.628 403.668 257.114V295.342C403.668 297.446 405.378 299.156 407.482 299.156H427.31C429.414 299.156 431.118 297.446 431.118 295.342V217.097C431.124 213.541 426.716 211.945 424.394 214.638V214.638Z" fill="#343434"/>
<path d="M448.547 190.487H431.125V159.023H403.669V209.944C403.669 218.818 401.983 227.594 398.804 235.873C397.088 240.327 395.356 245.222 393.618 250.602C381.982 286.571 365.316 288.178 364.338 288.178C351.674 288.178 338.157 276.766 338.157 245.096C338.157 207.794 353.989 204.981 353.989 204.981H387.128V191.047H352.091C329.238 191.047 310.707 209.578 310.707 232.431V245.101C310.707 290.276 343.217 299.156 362.64 299.156C373.429 299.156 383.4 292.843 389.587 284.261C392.76 279.847 394.224 274.993 396.196 270.047C398.724 263.718 401.154 257.349 403.669 251.008C412.594 228.555 422.892 204.987 431.125 204.987H443.384C447.329 204.987 451.222 206.136 454.339 208.509C459.759 212.62 465.94 221.476 465.94 240.459V299.15H493.407C493.407 299.15 493.407 240.459 493.373 240.459C492.847 219.258 485.053 190.487 448.547 190.487V190.487Z" fill="#343434"/>
<path d="M530.317 178.755C533.331 171.479 529.876 163.138 522.6 160.124C515.324 157.11 506.982 160.566 503.969 167.841C500.955 175.117 504.41 183.459 511.686 186.473C518.962 189.486 527.303 186.031 530.317 178.755Z" fill="#343434"/>
<path d="M531.406 195.307H502.887V298.527H531.406V195.307Z" fill="#343434"/>
<path d="M273.182 186.788H242.908C235.635 186.788 229.649 192.265 228.848 199.321C228.848 199.355 228.848 199.384 228.837 199.412C227.99 206.485 232.713 213.192 239.66 214.735C246.012 216.148 251.861 213.289 254.892 208.48C257.076 205.01 260.558 202.66 264.463 201.716C271.639 203.489 276.956 209.973 276.956 217.697V228.366H268.094C246.212 228.366 220.832 239.738 220.832 270.819C220.832 290.368 229.872 301.74 249.105 301.74C261.301 301.74 271.273 296.949 276.956 293.438V298.824H305.407V219.012C305.407 201.213 290.981 186.788 273.182 186.788V186.788ZM276.956 284.541C274.131 286.714 270.238 288.978 265.481 289.927C258.602 291.282 247.928 288.612 247.928 268.183C247.928 267.554 247.951 266.937 247.985 266.325C248.705 253.003 260.18 242.809 273.502 242.809H276.956V284.541V284.541Z" fill="#343434"/>
<path d="M690.864 281.614C683.791 278.612 678.834 272.306 675.787 264.393C670.635 268.263 664.895 272.849 658.914 278.126C667.605 288.624 678.297 295.01 685.461 296.737C717.668 304.484 726.319 294.576 726.319 294.576V271.911C726.319 271.911 713.271 291.117 690.864 281.614V281.614Z" fill="#343434"/>
<path d="M697.797 246.022C721.199 234.999 729.684 223.752 730.541 213.386C730.959 208.383 729.598 203.592 727.282 199.126C720.164 185.398 695.716 186.21 695.716 186.21C695.716 186.21 656.058 185.073 646.91 219.058C641.679 238.492 644.915 254.73 651.616 267.274C641.924 273.964 635.12 278.692 635.12 278.692V237.543H635.081C634.537 215.519 642.805 186.21 600.106 186.21C588.922 186.21 581.261 192.505 576.035 200.493V186.21H547.516V298.527H576.035V218.892C580.049 203.529 589.849 200.687 589.849 200.687C589.849 200.687 606.001 195.702 606.584 237.543V298.527H635.12C642.382 290.07 649.963 282.546 657.242 276.017C663.44 270.453 669.415 265.616 674.789 261.545C688.157 251.414 697.797 246.022 697.797 246.022V246.022ZM695.716 195.238C717.271 188.057 722.663 219.292 700.696 233.866C692.617 239.23 682.571 246.045 672.788 252.735C669.243 229.109 678.128 199.784 695.716 195.238Z" fill="#343434"/>
<path d="M780.21 230.888C767.54 224.027 754.899 217.24 754.899 206.685C754.899 196.13 769.999 196.862 769.999 196.862H797.294V186.21H761.211C750.107 186.21 734.818 186.21 734.818 210.802C734.818 228.046 763.544 247.875 776.545 259.636C789.547 271.391 781.548 287.726 759.879 287.726C757.168 287.726 754.693 287.417 752.429 286.88C752.417 286.88 752.4 286.88 752.383 286.869C746.802 285.262 739.798 280.854 737.769 269.024C737.26 266.074 737.317 263.644 737.78 261.654C738.346 265.119 741.348 267.755 744.967 267.755C748.992 267.755 752.257 264.496 752.257 260.47C752.257 257.046 749.896 254.175 746.717 253.392C744.462 252.836 742.143 253.392 742.143 253.392C736.139 255.004 725.367 266.045 731.319 283.558C739.57 309.893 802.749 310.311 805.882 266.497C807.232 247.594 792.88 237.749 780.21 230.888Z" fill="#343434"/>
<path d="M746.25 161.459C739.246 158.486 734.312 152.265 731.264 144.455C726.118 148.354 720.424 152.957 714.512 158.223C723.157 168.572 733.74 174.872 740.847 176.582C773.054 184.329 781.705 174.421 781.705 174.421V151.75C781.705 151.75 768.663 170.956 746.25 161.459V161.459Z" fill="#343434"/>
</g>
<path d="M122.152 103.271L122.157 59.4629H111.242V103.271C105.571 105.461 101.54 110.967 101.54 117.416C101.54 119.6 102.009 121.682 102.838 123.557L78.332 148.063L86.0508 155.781L110.556 131.276C112.432 132.111 114.513 132.574 116.697 132.574C125.068 132.574 131.854 125.787 131.854 117.416C131.854 110.967 127.829 105.467 122.152 103.271Z" fill="#343434"/>
<path d="M122.152 103.271L122.157 59.4629H111.242V103.271C105.571 105.461 101.54 110.967 101.54 117.416C101.54 119.6 102.009 121.682 102.838 123.557L78.332 148.063L86.0508 155.781L110.556 131.276C112.432 132.111 114.513 132.574 116.697 132.574C125.068 132.574 131.854 125.787 131.854 117.416C131.854 110.967 127.829 105.467 122.152 103.271Z" stroke="black"/>
<defs>
<clipPath id="clip0_139_692">
<rect width="805.974" height="301.74" fill="white"/>
</clipPath>
</defs>
</svg>
