<svg width="667" height="311" viewBox="0 0 667 311" fill="none" xmlns="http://www.w3.org/2000/svg">
<g clip-path="url(#clip0_139_666)">
<path d="M200.854 241.248C194.874 244.414 188.469 247.006 181.694 248.917C129.957 263.533 76.1777 233.44 61.5621 181.703C46.9465 129.966 77.0389 76.1785 128.776 61.5629C144.277 57.1831 159.967 56.8223 174.723 59.8569L166.316 32.7335L161.403 32.1512C159.582 31.9298 157.933 30.9619 156.875 29.4692L137.921 2.7313C136.338 0.492203 133.517 -0.500216 130.876 0.237947L94.9353 10.3918C92.2943 11.1382 90.4079 13.4593 90.2275 16.1987L88.054 48.8747C87.9309 50.7037 87.0452 52.3933 85.5934 53.5333L72.5443 63.8266C71.1008 64.9585 69.2554 65.4424 67.451 65.1225L35.1605 59.6437C32.4539 59.1844 29.7555 60.4721 28.4186 62.8588L10.1695 95.4692C8.84086 97.8641 9.14432 100.841 10.9487 102.9L32.5113 127.546C33.7252 128.916 34.2993 130.737 34.0778 132.574L32.1258 149.101C31.9044 150.922 30.9283 152.562 29.4356 153.628L2.7305 172.566C0.49141 174.149 -0.50101 176.962 0.237154 179.612L10.391 215.544C11.1374 218.193 13.4585 220.079 16.1979 220.252L48.8903 222.425C50.7193 222.548 52.4089 223.434 53.5489 224.886L63.8422 237.926C64.9741 239.37 65.4498 241.215 65.1299 243.02L59.6429 275.319C59.1836 278.025 60.4713 280.724 62.858 282.06L95.4602 300.301C97.8551 301.638 100.832 301.327 102.891 299.522L127.587 277.91C128.956 276.696 130.777 276.131 132.614 276.344L149.059 278.288C150.88 278.509 152.52 279.485 153.586 280.978L172.565 307.724C174.148 309.963 176.97 310.955 179.611 310.217L215.551 300.063C218.2 299.317 220.079 296.996 220.259 294.265L222.35 262.737L200.854 241.24V241.248Z" fill="#343434"/>
<path d="M163.355 135.018V72.176H147.698V135.018C139.562 138.16 133.779 146.058 133.779 155.31C133.779 158.443 134.452 161.428 135.641 164.118L100.488 199.271L111.561 210.344L146.714 175.191C149.404 176.388 152.389 177.053 155.522 177.053C167.53 177.053 177.265 167.317 177.265 155.31C177.265 146.058 171.491 138.168 163.347 135.018H163.355Z" fill="#343434"/>
<path d="M362.479 223.598C362.479 223.598 342.639 222.655 322.487 185.255C322.471 185.222 322.455 185.197 322.438 185.164C311.472 162.847 292.206 128.564 273.203 128.564H273.17C293.683 122.888 321.06 107.952 316.516 71.0196C307.773 0.000147223 264.386 1.28783 230.397 1.28783H211.328L181.851 1.29603L160.633 1.28783C167.432 8.26758 172.821 16.3956 176.339 25.2863C197.492 78.6637 192.185 158.459 181.851 234.203H230.963C226.559 210.327 223.967 214.535 222.614 196.548C220.711 171.221 221.277 150.659 222.762 131.861H241.257C241.257 131.861 257.217 134.986 272.374 166.415C276.434 174.83 279.928 182.482 283.094 189.175C283.094 189.175 283.783 190.889 285.104 193.686C289.779 203.545 300.744 231.669 319.994 235.195C339.244 238.722 351.817 235.589 362.479 223.598ZM230.824 113.398H222.762V21.8252H247.605C247.605 21.8252 283.816 22.3501 283.816 66.402C283.816 110.454 241.314 113.398 230.824 113.398Z" fill="#343434"/>
<path d="M453.379 41.3784C463.352 39.1639 470.127 29.5432 468.905 19.3976C468.905 19.3566 468.896 19.3155 468.888 19.2663C467.74 9.1453 459.153 1.28796 448.72 1.28796H324.487C314.054 1.28796 305.467 9.1453 304.319 19.2663C304.311 19.3073 304.302 19.3566 304.302 19.3976C303.08 29.535 309.855 39.1639 319.828 41.3784C329.179 43.4535 337.766 39.0819 342.006 31.8561C345.656 25.6309 352.496 21.9893 359.706 22.0222L366.152 22.055V233.793H407.055V22.055L413.501 22.0222C420.719 21.9893 427.551 25.6391 431.201 31.8561C435.441 39.0901 444.029 43.4535 453.379 41.3784Z" fill="#343434"/>
<path d="M627.205 1.75547C618.651 32.0366 610.277 68.1245 570.162 144.836L523.576 22.3092C522.148 17.0765 520.27 11.8273 516.99 7.88222C513.701 3.92895 509.026 1.28796 501.98 1.28796H468.951C477.129 39.1065 481.033 75.9409 481.992 116.146C481.992 116.146 474.955 233.801 443.969 233.801H485.052H501.972C528.866 168.17 513.413 81.9364 513.413 81.9364L554.997 233.801H580.693C580.693 233.801 615.37 113.12 627.517 73.0292V233.801H666.853V1.28796H627.394L627.214 1.75547H627.205Z" fill="#343434"/>
</g>
<defs>
<clipPath id="clip0_139_666">
<rect width="666.848" height="310.471" fill="white"/>
</clipPath>
</defs>
</svg>
