<?xml version="1.0" standalone="no"?>
<!DOCTYPE svg PUBLIC "-//W3C//DTD SVG 20010904//EN"
 "http://www.w3.org/TR/2001/REC-SVG-20010904/DTD/svg10.dtd">
<svg version="1.0" xmlns="http://www.w3.org/2000/svg"
 width="669.000000pt" height="669.000000pt" viewBox="0 0 669.000000 669.000000"
 preserveAspectRatio="xMidYMid meet">

<g transform="translate(0.000000,669.000000) scale(0.100000,-0.100000)"
fill="#000000" stroke="none">
<path d="M1125 4783 c-104 -30 -196 -60 -204 -68 -10 -10 -18 -65 -27 -192 -7
-98 -15 -185 -19 -194 -7 -19 -126 -116 -165 -136 -24 -11 -50 -9 -209 18
-173 30 -183 31 -201 14 -11 -10 -60 -89 -110 -177 -107 -190 -109 -203 -46
-268 24 -25 78 -85 121 -134 l78 -90 -7 -94 c-9 -128 -19 -147 -107 -207 -141
-95 -217 -154 -223 -172 -8 -25 100 -405 119 -419 8 -6 59 -14 113 -18 53 -4
137 -9 186 -13 l88 -6 62 -74 c33 -41 66 -86 72 -99 8 -19 4 -65 -19 -204 -16
-98 -27 -185 -24 -193 4 -12 238 -149 349 -204 37 -19 46 -13 200 123 99 88
135 114 157 114 54 0 196 -22 209 -33 8 -6 56 -70 107 -141 51 -72 102 -140
114 -150 21 -19 23 -19 214 34 105 29 199 60 209 69 12 13 18 51 27 180 l12
165 -102 102 -102 103 -36 -18 c-121 -62 -312 -97 -475 -88 -390 22 -714 258
-862 631 -81 203 -87 452 -15 659 83 238 279 464 496 571 150 74 357 112 525
96 47 -4 86 -7 87 -6 6 5 -73 239 -82 241 -5 2 -22 6 -37 9 -21 5 -51 40 -132
154 -58 82 -115 153 -128 159 -18 8 -62 -1 -213 -44z"/>
<path d="M1654 4798 c93 -128 140 -233 185 -414 98 -391 104 -929 21 -1634
-11 -91 -22 -180 -25 -197 l-6 -33 226 0 c210 0 225 1 225 18 0 10 -16 73 -35
141 -31 111 -35 142 -44 320 -5 114 -6 267 -1 366 5 94 9 171 9 173 1 1 48 2
106 2 86 0 113 -4 145 -20 51 -26 137 -112 191 -191 39 -58 65 -110 228 -453
117 -247 212 -356 311 -356 16 0 30 -4 30 -10 0 -6 40 -10 100 -10 60 0 100 4
100 10 0 6 15 10 32 10 21 0 52 13 86 37 l53 36 -61 33 c-126 67 -244 210
-364 439 -131 249 -254 406 -361 456 -33 16 -66 29 -72 29 -34 0 -5 21 68 50
190 77 293 181 334 337 19 73 19 147 0 259 -68 399 -241 577 -595 614 -56 5
-282 10 -502 10 l-400 0 16 -22z m969 -197 c123 -62 197 -173 219 -330 40
-282 -101 -491 -375 -556 -34 -8 -106 -15 -159 -15 l-98 0 0 471 0 471 173 -4
173 -3 67 -34z"/>
<path d="M3175 4805 c-82 -29 -133 -119 -119 -212 13 -89 115 -163 205 -149
61 10 88 27 151 99 68 77 116 100 198 95 l55 -3 3 -1057 2 -1058 190 0 190 0
2 1058 3 1057 59 3 c83 4 153 -31 207 -104 42 -58 73 -78 132 -89 108 -21 218
75 217 189 -1 74 -64 155 -138 176 -24 6 -266 10 -677 10 -525 -1 -647 -3
-680 -15z"/>
<path d="M4711 4781 c68 -303 131 -936 114 -1156 -37 -496 -145 -932 -264
-1068 l-33 -37 239 0 239 0 37 113 c101 317 135 680 103 1117 -9 124 -19 236
-23 249 -4 17 -2 22 7 19 7 -2 19 -26 27 -54 8 -27 18 -58 22 -69 5 -11 23
-74 40 -140 18 -66 40 -149 51 -185 11 -36 70 -249 131 -475 61 -225 121 -446
133 -490 l22 -80 117 -3 116 -3 20 68 c11 37 63 219 115 403 53 184 100 349
106 365 5 17 48 163 95 325 93 322 132 440 146 440 5 0 9 -334 9 -800 l0 -800
170 0 170 0 0 1150 0 1150 -170 0 -169 0 -12 -42 c-100 -375 -245 -762 -393
-1055 -19 -37 -46 -93 -60 -123 -64 -136 -107 -210 -119 -210 -8 0 -24 26 -36
63 -12 34 -26 71 -31 82 -5 11 -18 43 -28 70 -11 28 -38 97 -60 155 -22 58
-68 179 -102 270 -34 91 -78 206 -97 255 -84 220 -112 294 -133 355 -29 85
-63 134 -108 157 -31 15 -67 19 -219 21 l-181 3 9 -40z"/>
<path d="M1480 3805 c0 -279 -2 -306 -17 -319 -10 -8 -33 -27 -52 -42 -61 -50
-84 -133 -61 -214 l10 -34 -172 -173 -172 -173 47 -48 47 -47 173 173 173 173
47 -11 c136 -30 260 85 244 227 -6 58 -37 114 -78 140 -19 13 -40 27 -46 33
-10 8 -13 84 -13 315 l0 305 -65 0 -65 0 0 -305z"/>
</g>
</svg>
