<svg width="856" height="399" viewBox="0 0 856 399" fill="none" xmlns="http://www.w3.org/2000/svg">
<g clip-path="url(#clip0_339_597)">
<path d="M257.807 310.002C250.141 314.06 241.928 317.382 233.242 319.832C166.907 338.568 97.9537 299.992 79.2142 233.669C60.4748 167.347 99.0578 98.3952 165.393 79.6591C185.268 74.0446 205.385 73.582 224.303 77.4722L213.524 42.7021L207.225 41.9556C204.89 41.6718 202.777 40.4311 201.42 38.5175L177.118 4.24163C175.088 1.37128 171.471 0.0990806 168.085 1.04535L122.004 14.0618C118.618 15.0186 116.199 17.994 115.968 21.5057L113.181 63.3938C113.023 65.7385 111.887 67.9044 110.026 69.3658L93.2951 82.561C91.4443 84.012 89.0782 84.6323 86.7647 84.2222L45.3634 77.1988C41.8931 76.61 38.4334 78.2608 36.7193 81.3204L13.3212 123.124C11.6177 126.194 12.0068 130.011 14.3203 132.65L41.9667 164.245C43.5231 166.001 44.2592 168.335 43.9753 170.69L41.4725 191.876C41.1885 194.21 39.9371 196.313 38.0232 197.68L3.78327 221.957C0.912413 223.986 -0.360018 227.592 0.586419 230.988L13.6052 277.05C14.5621 280.447 17.5381 282.865 21.0505 283.086L62.9671 285.872C65.3121 286.03 67.4784 287.165 68.9402 289.026L82.1377 305.743C83.5889 307.594 84.1988 309.96 83.7887 312.273L76.7535 353.677C76.1646 357.147 77.8156 360.606 80.8758 362.32L122.677 385.703C125.747 387.417 129.565 387.017 132.204 384.704L163.868 357C165.624 355.443 167.958 354.718 170.314 354.991L191.398 357.483C193.733 357.767 195.836 359.018 197.203 360.932L221.537 395.218C223.567 398.089 227.184 399.361 230.57 398.415L276.651 385.398C280.048 384.441 282.456 381.466 282.688 377.965L285.369 337.548L257.807 309.991V310.002Z" fill="#5E6EFF"/>
<path d="M207.513 176.696V100.74H188.955V176.696C179.312 180.493 172.458 190.04 172.458 201.222C172.458 205.009 173.255 208.617 174.665 211.869L133 254.357L146.124 267.74L187.789 225.252C190.977 226.699 194.516 227.502 198.229 227.502C212.461 227.502 224 215.735 224 201.222C224 190.04 217.156 180.503 207.503 176.696H207.513Z" fill="#5E6EFF"/>
<path d="M465.032 287.375C465.032 287.375 439.594 286.166 413.756 238.222C413.735 238.18 413.714 238.148 413.693 238.106C399.633 209.497 374.931 165.548 350.566 165.548H350.524C376.824 158.273 411.927 139.127 406.101 91.7816C394.891 0.740227 339.261 2.39094 295.683 2.39094H271.234L233.439 2.40145L206.234 2.39094C214.952 11.3384 221.861 21.7579 226.372 33.1551C253.493 101.581 246.689 203.872 233.439 300.97H296.409C290.762 270.363 287.439 275.757 285.703 252.7C283.264 220.232 283.989 193.873 285.893 169.775H309.606C309.606 169.775 330.07 173.781 349.504 214.071C354.709 224.858 359.189 234.668 363.248 243.247C363.248 243.247 364.131 245.445 365.825 249.03C371.819 261.668 385.878 297.721 410.559 302.242C435.24 306.763 451.361 302.747 465.032 287.375ZM296.23 146.108H285.893V28.7182H317.746C317.746 28.7182 364.174 29.3911 364.174 85.8622C364.174 142.333 309.68 146.108 296.23 146.108Z" fill="#FF8855"/>
<path d="M581.582 53.7837C594.37 50.9449 603.056 38.6119 601.489 25.606C601.489 25.5534 601.478 25.5008 601.468 25.4377C599.996 12.4634 588.985 2.39087 575.609 2.39087H416.324C402.948 2.39087 391.937 12.4634 390.465 25.4377C390.455 25.4903 390.444 25.5534 390.444 25.606C388.877 38.6014 397.563 50.9449 410.351 53.7837C422.339 56.4438 433.349 50.8397 438.786 41.5768C443.466 33.5967 452.236 28.9284 461.479 28.9705L469.745 29.0125V300.444H522.188V29.0125L530.454 28.9705C539.708 28.9284 548.467 33.6072 553.147 41.5768C558.584 50.8503 569.594 56.4438 581.582 53.7837Z" fill="#FF8855"/>
<path d="M804.457 2.99017C793.488 41.8082 782.752 88.0701 731.318 186.408L671.587 29.3385C669.758 22.6305 667.35 15.9015 663.143 10.8442C658.926 5.7764 652.932 2.39087 643.899 2.39087H601.551C612.036 50.8713 617.041 98.09 618.272 149.63C618.272 149.63 609.249 300.455 569.52 300.455H622.194H643.888C678.37 216.321 658.558 105.776 658.558 105.776L711.874 300.455H744.821C744.821 300.455 789.282 145.75 804.856 94.3575V300.455H855.291V2.39087H804.698L804.467 2.99017H804.457Z" fill="#FF8855"/>
</g>
<defs>
<clipPath id="clip0_339_597">
<rect width="855" height="398" fill="white" transform="translate(0.28125 0.740234)"/>
</clipPath>
</defs>
</svg>
