<svg width="161" height="60" viewBox="0 0 161 60" fill="none" xmlns="http://www.w3.org/2000/svg">
<g clip-path="url(#clip0_1_2725)">
<path d="M77.0833 10.2892C80.892 10.22 80.2724 15.9511 80.2724 20.8626C80.2724 25.7741 80.2724 30.0114 80.2724 30.0114H85.9468V17.8839H85.94C85.8308 13.5045 86.1787 7.67773 78.9854 7.67773C76.7604 7.67773 75.2381 8.92949 74.1978 10.5178V7.67773H68.5269V35.6961H74.0841C74.0841 19.4415 73.2746 10.3585 77.0833 10.2892Z" fill="white"/>
<path d="M104.934 6.98389H99.2637V29.7837H104.934V6.98389Z" fill="white"/>
<path d="M113.808 13.9488C114.606 10.8939 116.555 10.3289 116.555 10.3289C116.555 10.3289 119.767 9.33749 119.883 17.6563V35.4685H125.557V17.6563H125.549C125.518 16.416 125.629 15.0596 125.609 13.7522C126.437 10.8678 128.303 10.3289 128.303 10.3289C128.303 10.3289 131.516 9.33749 131.631 17.6563V35.4685H137.305C137.38 35.381 137.456 35.2934 137.532 35.207C138.906 33.6312 140.331 32.2226 141.703 30.9924C142.936 29.8862 144.124 28.9233 145.193 28.1126C147.852 26.1003 149.768 25.0282 149.768 25.0282C155.829 22.1722 156.859 19.2424 156.058 16.7218C155.948 16.3739 155.804 16.034 155.632 15.7031C154.217 12.9734 149.354 13.1348 149.354 13.1348C149.354 13.1348 141.47 12.9086 139.649 19.6664C138.609 23.5297 139.253 26.7585 140.585 29.2541C138.658 30.5843 137.305 31.5245 137.305 31.5245V18.5636C137.414 14.058 138.013 7.4502 130.344 7.4502C127.853 7.4502 126.239 9.01801 125.201 10.8723C124.528 8.8884 122.813 7.4502 118.595 7.4502C116.371 7.4502 114.847 8.70195 113.808 10.2902V7.4502H108.137V33.1947H113.808V13.9488ZM149.354 14.93C153.641 13.502 154.712 19.7119 150.345 22.6111C148.739 23.6764 146.74 25.0316 144.795 26.3618C144.091 21.664 145.858 15.8339 149.354 14.93ZM137.302 18.7L137.298 19.9302C137.289 19.5459 137.292 19.1332 137.302 18.7Z" fill="white"/>
<path d="M101.548 5.55841C102.93 5.25145 103.869 3.91784 103.7 2.51146C103.7 2.50578 103.699 2.50009 103.698 2.49327C103.538 1.09031 102.348 0 100.902 0H83.681C82.2348 0 81.0444 1.08917 80.8853 2.49213C80.8841 2.49782 80.883 2.50464 80.883 2.51033C80.7136 3.91556 81.6527 5.25031 83.0352 5.55728C84.3313 5.84492 85.5217 5.23894 86.1094 4.23731C86.6154 3.37439 87.5636 2.86959 88.5629 2.87414L89.4565 2.87869V33.1947H95.1264V2.87982L96.02 2.87528C97.0205 2.87073 97.9675 3.37666 98.4735 4.23845C99.0613 5.24121 100.252 5.84606 101.548 5.55841Z" fill="white"/>
<path d="M48.5024 32.8423C50.4704 32.6672 52.6715 31.7668 54.1495 30.1046C55.0329 29.1143 55.657 27.8523 55.8219 26.3129C55.8514 26.0469 55.8662 25.7718 55.8662 25.4887C55.8662 25.4887 54.951 26.1674 53.639 26.7882C53.6151 26.3823 53.5992 25.9503 53.5924 25.4887V7.67764L46.141 7.70606C48.0089 9.62178 47.918 11.9354 47.918 17.1402V25.4887H47.9248C47.9407 26.106 47.9203 26.7518 47.8998 27.4055C47.129 27.0622 46.4229 26.4607 45.8511 25.5012C45.8488 25.4966 45.8465 25.4932 45.8442 25.4887C44.3242 22.3951 41.6536 17.6428 39.0193 17.6428H39.0148C41.8582 16.856 45.0234 14.8243 45.0234 9.66612C45.0234 0.302421 37.7971 0 33.0857 0H30.4424L26.3563 0.00113692L23.415 0C24.3575 0.967521 25.1045 2.09421 25.5922 3.32664C28.5244 10.7257 27.7888 25.1976 26.3563 35.6971H33.1642C32.5536 32.3875 32.1944 29.56 32.0068 27.0667C31.743 23.5559 31.8214 20.7056 32.0272 18.0998H34.591C34.591 18.0998 36.8034 18.533 38.9045 22.8897C39.4672 24.0561 39.9516 25.1169 40.3904 26.0446C40.3904 26.0446 40.4859 26.2822 40.669 26.6699C41.317 28.0365 43.0542 31.2631 45.5054 32.4239C46.3036 32.8025 47.3643 32.9435 48.5024 32.8423ZM33.1448 15.5406H32.0272V2.84685H35.471C35.471 2.84685 40.4905 2.91962 40.4905 9.02603C40.4905 15.1324 34.5989 15.5406 33.1448 15.5406Z" fill="white"/>
<path d="M56.7517 11.9355C57.6567 11.9355 58.4287 11.3693 58.7368 10.5723C58.7368 10.5723 58.7368 10.5735 58.7368 10.5746C59.3439 11.9003 59.6668 13.3533 59.6668 14.8392V29.1963C58.8687 32.2523 56.92 32.8174 56.92 32.8174C56.92 32.8174 55.351 33.3006 54.3676 30.7538C52.9203 32.3694 50.7886 33.2608 48.8604 33.4597C49.7915 34.8058 51.5617 35.6961 54.8804 35.6961C57.1042 35.6961 58.6265 34.4443 59.6668 32.856V35.6961H65.3378V7.67773H56.7563C56.7563 7.67773 56.7529 7.67773 56.7517 7.67773C55.5762 7.67773 54.6223 8.63048 54.6223 9.80719C54.6223 10.9839 55.575 11.9366 56.7517 11.9366V11.9355Z" fill="white"/>
<path d="M36.0507 31.6783C35.0297 35.2903 34.0315 39.5958 29.245 48.748L23.6878 34.1306C23.5172 33.5064 23.2933 32.88 22.9021 32.4093C22.5099 31.9375 21.9517 31.6226 21.1115 31.6226H16.1932C17.1686 36.1339 17.6348 40.5281 17.7485 45.3247V45.3316C17.7485 45.3316 17.7485 45.3338 17.7485 45.335C17.6496 47.3678 16.9094 59.3601 13.2122 59.3601H19.0923H21.1104C24.3188 51.5301 22.4758 41.2432 22.4758 41.2432L27.4362 59.3601H30.5013C30.5013 59.3601 34.6386 44.9632 36.087 40.1802V59.3601H41.758V31.6226H36.0723L36.0507 31.6783Z" fill="white"/>
<path d="M84.3892 42.6799C83.0703 44.2113 81.6253 47.5743 80.3224 50.8441C80.286 50.934 80.2678 51.0295 80.2678 51.1261V58.7276C80.2678 59.1459 80.6078 59.4859 81.0261 59.4859H84.969C85.3874 59.4859 85.7262 59.1459 85.7262 58.7276V43.1688C85.7273 42.4616 84.8508 42.1444 84.3892 42.6799Z" fill="white"/>
<path d="M89.1916 37.8776H85.7274V31.6211H80.2679V41.7465C80.2679 43.511 79.9325 45.2562 79.3004 46.9025C78.9593 47.7881 78.6149 48.7613 78.2692 49.8312C75.9556 56.9836 72.6415 57.303 72.447 57.303C69.9288 57.303 67.2411 55.0337 67.2411 48.7363C67.2411 41.319 70.3892 40.7597 70.3892 40.7597H76.9788V37.989H70.0118C65.4675 37.989 61.7827 41.6738 61.7827 46.218V48.7375C61.7827 57.7203 68.2473 59.4859 72.1094 59.4859C74.2548 59.4859 76.2376 58.2308 77.4677 56.5243C78.0987 55.6465 78.3897 54.6813 78.782 53.6979C79.2845 52.4393 79.7677 51.1728 80.2679 49.9119C82.0427 45.4472 84.0903 40.7608 85.7274 40.7608H88.165C88.9495 40.7608 89.7237 40.9893 90.3433 41.4612C91.4212 42.2786 92.6502 44.0397 92.6502 47.8143V59.4848H98.1119C98.1119 59.4848 98.1119 47.8143 98.1051 47.8143C98.0005 43.5986 96.4509 37.8776 89.1916 37.8776Z" fill="white"/>
<path d="M105.452 35.5447C106.051 34.0979 105.364 32.4392 103.917 31.8399C102.47 31.2407 100.812 31.9277 100.213 33.3745C99.6133 34.8213 100.3 36.48 101.747 37.0792C103.194 37.6785 104.853 36.9915 105.452 35.5447Z" fill="white"/>
<path d="M105.668 38.8359H99.9968V59.3608H105.668V38.8359Z" fill="white"/>
<path d="M54.321 37.1421H48.301C46.8549 37.1421 45.6645 38.2313 45.5053 39.6342C45.5053 39.641 45.5053 39.6467 45.5031 39.6524C45.3348 41.0588 46.2739 42.3924 47.6553 42.6994C48.9184 42.9802 50.0815 42.4117 50.684 41.4556C51.1183 40.7655 51.8107 40.2982 52.5872 40.1106C54.0141 40.463 55.0714 41.7523 55.0714 43.2883V45.4098H53.3092C48.9582 45.4098 43.9114 47.6711 43.9114 53.8514C43.9114 57.7386 45.7088 59.9999 49.5335 59.9999C51.9585 59.9999 53.9413 59.0472 55.0714 58.3491V59.4201H60.7287V43.5498C60.7287 40.0105 57.8603 37.1421 54.321 37.1421ZM55.0714 56.5801C54.5098 57.0121 53.7355 57.4623 52.7896 57.651C51.4219 57.9205 49.2993 57.3895 49.2993 53.3273C49.2993 53.2023 49.3038 53.0795 49.3106 52.9578C49.4539 50.3088 51.7357 48.2817 54.3847 48.2817H55.0714V56.5801Z" fill="white"/>
<path d="M137.376 55.9981C135.969 55.4013 134.983 54.1472 134.378 52.5737C133.353 53.3434 132.212 54.2552 131.022 55.3046C132.751 57.392 134.877 58.6619 136.301 59.0053C142.705 60.5458 144.426 58.5755 144.426 58.5755V54.0688C144.426 54.0688 141.831 57.8877 137.376 55.9981Z" fill="white"/>
<path d="M138.754 48.9205C143.408 46.7286 145.095 44.4922 145.266 42.431C145.349 41.4362 145.078 40.4834 144.618 39.5955C143.202 36.8658 138.341 37.0272 138.341 37.0272C138.341 37.0272 130.455 36.801 128.636 43.5588C127.596 47.4232 128.239 50.6521 129.572 53.1465C127.644 54.4767 126.292 55.4169 126.292 55.4169V47.2345H126.284C126.176 42.8551 127.82 37.0272 119.329 37.0272C117.105 37.0272 115.582 38.2789 114.543 39.8672V37.0272H108.872V59.3609H114.543V43.5258C115.341 40.4709 117.289 39.9059 117.289 39.9059C117.289 39.9059 120.501 38.9145 120.617 47.2345V59.3609H126.292C127.735 57.6794 129.243 56.1832 130.69 54.8848C131.923 53.7786 133.111 52.8168 134.179 52.0073C136.838 49.9927 138.754 48.9205 138.754 48.9205ZM138.341 38.8224C142.627 37.3944 143.699 43.6054 139.331 46.5034C137.724 47.5699 135.727 48.9251 133.782 50.2553C133.077 45.5575 134.843 39.7263 138.341 38.8224Z" fill="white"/>
<path d="M155.142 45.9113C152.623 44.547 150.109 43.1974 150.109 41.0987C150.109 38.9999 153.112 39.1454 153.112 39.1454H158.539V37.0273H151.364C149.156 37.0273 146.116 37.0273 146.116 41.9172C146.116 45.3462 151.828 49.2891 154.413 51.6277C156.999 53.9652 155.408 57.2134 151.099 57.2134C150.56 57.2134 150.068 57.152 149.618 57.0451C149.616 57.0451 149.612 57.0451 149.609 57.0429C148.499 56.7234 147.106 55.8468 146.703 53.4945C146.602 52.9079 146.613 52.4247 146.705 52.029C146.818 52.718 147.415 53.2421 148.134 53.2421C148.935 53.2421 149.584 52.5941 149.584 51.7937C149.584 51.1127 149.114 50.5419 148.482 50.3862C148.034 50.2757 147.573 50.3862 147.573 50.3862C146.379 50.7068 144.237 52.9022 145.42 56.3846C147.061 61.6213 159.624 61.7043 160.247 52.992C160.515 49.2333 157.662 47.2756 155.142 45.9113Z" fill="white"/>
<path d="M148.389 32.1053C146.996 31.5141 146.015 30.2772 145.409 28.7241C144.386 29.4995 143.253 30.4147 142.078 31.4618C143.797 33.5197 145.901 34.7725 147.315 35.1125C153.719 36.653 155.439 34.6827 155.439 34.6827V30.1748C155.439 30.1748 152.846 33.9938 148.389 32.1053Z" fill="white"/>
</g>
<path d="M25.0759 5.64256L23.4387 5.44928C23.1727 5.41745 22.9351 5.27647 22.7804 5.05932L20.0268 1.17673C19.7972 0.851567 19.3879 0.707178 19.0036 0.815185L13.784 2.28977C13.4008 2.39778 13.1268 2.73545 13.1007 3.13223L12.7846 7.87889C12.7664 8.14493 12.638 8.38936 12.4288 8.55535L10.5324 10.0504C10.3243 10.2153 10.0549 10.2835 9.79224 10.238L5.10357 9.44102C4.71133 9.37508 4.31909 9.56267 4.12468 9.90943L1.47679 14.6436C1.28237 14.9903 1.32785 15.4224 1.58934 15.7225L4.72156 19.3004C4.89779 19.5005 4.97964 19.7654 4.94781 20.0315L4.66472 22.4315C4.63288 22.6964 4.49077 22.934 4.27475 23.0875L0.395573 25.8389C0.0715499 26.0696 -0.0728393 26.4789 0.0351684 26.8632L1.50976 32.0817C1.61776 32.466 1.95543 32.7388 2.35222 32.765L7.10114 33.081C7.36604 33.0992 7.61162 33.2277 7.77761 33.4369L9.27153 35.3321C9.43638 35.5413 9.50573 35.8097 9.46026 36.0723L8.66214 40.7621C8.5962 41.1555 8.78379 41.5466 9.13055 41.741L13.8647 44.39C14.2115 44.5833 14.6435 44.539 14.9436 44.2763L16.4023 42.9996C16.2784 40.4949 16.0442 38.0812 15.6781 35.6789C12.5038 33.9155 10.0048 30.9368 8.93955 27.1656C6.81805 19.6529 11.1872 11.8422 18.7 9.71956C21.1114 9.03855 23.5547 9.02604 25.8297 9.5729C25.6387 8.16653 25.3908 6.84656 25.0759 5.64256Z" fill="#FF8855"/>
<path d="M24.2893 20.5348L24.2904 11.8237H22.1201V20.5348C20.9922 20.9703 20.1907 22.0651 20.1907 23.3476C20.1907 23.7819 20.2839 24.1957 20.4488 24.5686L15.5759 29.4415L17.1108 30.9763L21.9836 26.1035C22.3565 26.2695 22.7704 26.3616 23.2047 26.3616C24.8691 26.3616 26.2187 25.012 26.2187 23.3476C26.2187 22.0651 25.4183 20.9714 24.2893 20.5348Z" fill="#FF8855"/>
<defs>
<clipPath id="clip0_1_2725">
<rect width="160.265" height="60" fill="white"/>
</clipPath>
</defs>
</svg>
