<svg width="221" height="60" viewBox="0 0 221 60" fill="none" xmlns="http://www.w3.org/2000/svg">
<g clip-path="url(#clip0_462_1066)">
<path d="M77.0838 10.2892C80.8925 10.22 80.2729 15.9511 80.2729 20.8626C80.2729 25.7741 80.2729 30.0114 80.2729 30.0114H85.9473V17.8839H85.9405C85.8313 13.5045 86.1792 7.67773 78.9859 7.67773C76.7609 7.67773 75.2386 8.92949 74.1983 10.5178V7.67773H68.5273V35.6961H74.0846C74.0846 19.4415 73.2751 10.3585 77.0838 10.2892Z" fill="white"/>
<path d="M104.934 6.98389H99.2637V29.7837H104.934V6.98389Z" fill="white"/>
<path d="M113.81 13.9488C114.608 10.8939 116.556 10.3289 116.556 10.3289C116.556 10.3289 119.768 9.33749 119.884 17.6563V35.4685H125.559V17.6563H125.551C125.52 16.416 125.63 15.0596 125.611 13.7522C126.439 10.8678 128.304 10.3289 128.304 10.3289C128.304 10.3289 131.517 9.33749 131.632 17.6563V35.4685H137.306C137.381 35.381 137.458 35.2934 137.534 35.207C138.907 33.6312 140.333 32.2226 141.704 30.9924C142.938 29.8862 144.126 28.9233 145.194 28.1126C147.854 26.1003 149.769 25.0282 149.769 25.0282C155.83 22.1722 156.86 19.2424 156.06 16.7218C155.95 16.3739 155.805 16.034 155.634 15.7031C154.218 12.9734 149.356 13.1348 149.356 13.1348C149.356 13.1348 141.471 12.9086 139.651 19.6664C138.61 23.5297 139.254 26.7585 140.586 29.2541C138.659 30.5843 137.306 31.5245 137.306 31.5245V18.5636C137.416 14.058 138.015 7.4502 130.345 7.4502C127.854 7.4502 126.241 9.01801 125.203 10.8723C124.53 8.8884 122.814 7.4502 118.596 7.4502C116.372 7.4502 114.849 8.70195 113.81 10.2902V7.4502H108.139V33.1947H113.81V13.9488ZM149.356 14.93C153.643 13.502 154.714 19.7119 150.347 22.6111C148.74 23.6764 146.742 25.0316 144.796 26.3618C144.093 21.664 145.859 15.8339 149.356 14.93ZM137.303 18.7L137.3 19.9302C137.291 19.5459 137.294 19.1332 137.303 18.7Z" fill="white"/>
<path d="M101.548 5.55841C102.93 5.25145 103.869 3.91784 103.7 2.51146C103.7 2.50578 103.699 2.50009 103.698 2.49327C103.538 1.09031 102.348 0 100.902 0H83.681C82.2348 0 81.0444 1.08917 80.8853 2.49213C80.8841 2.49782 80.883 2.50464 80.883 2.51033C80.7136 3.91556 81.6527 5.25031 83.0352 5.55728C84.3313 5.84492 85.5217 5.23894 86.1094 4.23731C86.6154 3.37439 87.5636 2.86959 88.5629 2.87414L89.4565 2.87869V33.1947H95.1264V2.87982L96.02 2.87528C97.0205 2.87073 97.9675 3.37666 98.4735 4.23845C99.0613 5.24121 100.252 5.84606 101.548 5.55841Z" fill="white"/>
<path d="M48.5033 32.8423C50.4714 32.6672 52.6724 31.7668 54.1504 30.1046C55.0338 29.1143 55.658 27.8523 55.8229 26.3129C55.8524 26.0469 55.8672 25.7718 55.8672 25.4887C55.8672 25.4887 54.952 26.1674 53.64 26.7882C53.6161 26.3823 53.6002 25.9503 53.5933 25.4887V7.67764L46.142 7.70606C48.0099 9.62178 47.919 11.9354 47.919 17.1402V25.4887H47.9258C47.9417 26.106 47.9212 26.7518 47.9008 27.4055C47.1299 27.0622 46.4239 26.4607 45.852 25.5012C45.8498 25.4966 45.8475 25.4932 45.8452 25.4887C44.3252 22.3951 41.6545 17.6428 39.0203 17.6428H39.0157C41.8592 16.856 45.0244 14.8243 45.0244 9.66612C45.0244 0.302421 37.7981 0 33.0867 0H30.4433L26.3572 0.00113692L23.416 0C24.3585 0.967521 25.1055 2.09421 25.5932 3.32664C28.5253 10.7257 27.7898 25.1976 26.3572 35.6971H33.1651C32.5546 32.3875 32.1953 29.56 32.0077 27.0667C31.744 23.5559 31.8224 20.7056 32.0282 18.0998H34.592C34.592 18.0998 36.8044 18.533 38.9054 22.8897C39.4682 24.0561 39.9526 25.1169 40.3914 26.0446C40.3914 26.0446 40.4869 26.2822 40.67 26.6699C41.318 28.0365 43.0552 31.2631 45.5064 32.4239C46.3045 32.8025 47.3653 32.9435 48.5033 32.8423ZM33.1458 15.5406H32.0282V2.84685H35.4719C35.4719 2.84685 40.4915 2.91962 40.4915 9.02603C40.4915 15.1324 34.5999 15.5406 33.1458 15.5406Z" fill="white"/>
<path d="M56.7527 11.9355C57.6577 11.9355 58.4297 11.3693 58.7378 10.5723C58.7378 10.5723 58.7378 10.5735 58.7378 10.5746C59.3449 11.9003 59.6678 13.3533 59.6678 14.8392V29.1963C58.8697 32.2523 56.921 32.8174 56.921 32.8174C56.921 32.8174 55.352 33.3006 54.3686 30.7538C52.9213 32.3694 50.7895 33.2608 48.8613 33.4597C49.7925 34.8058 51.5627 35.6961 54.8813 35.6961C57.1052 35.6961 58.6275 34.4443 59.6678 32.856V35.6961H65.3387V7.67773H56.7573C56.7573 7.67773 56.7538 7.67773 56.7527 7.67773C55.5771 7.67773 54.6233 8.63048 54.6233 9.80719C54.6233 10.9839 55.576 11.9366 56.7527 11.9366V11.9355Z" fill="white"/>
<path d="M36.0514 31.6783C35.0304 35.2903 34.0322 39.5958 29.2458 48.748L23.6885 34.1306C23.518 33.5064 23.294 32.88 22.9029 32.4093C22.5106 31.9375 21.9524 31.6226 21.1122 31.6226H16.1939C17.1694 36.1339 17.6355 40.5281 17.7492 45.3247V45.3316C17.7492 45.3316 17.7492 45.3338 17.7492 45.335C17.6503 47.3678 16.9102 59.3601 13.2129 59.3601H19.0931H21.1111C24.3195 51.5301 22.4765 41.2432 22.4765 41.2432L27.4369 59.3601H30.5021C30.5021 59.3601 34.6393 44.9632 36.0878 40.1802V59.3601H41.7587V31.6226H36.073L36.0514 31.6783Z" fill="white"/>
<path d="M84.3909 42.6799C83.072 44.2113 81.627 47.5743 80.3241 50.8441C80.2877 50.934 80.2695 51.0295 80.2695 51.1261V58.7276C80.2695 59.1459 80.6095 59.4859 81.0279 59.4859H84.9707C85.3891 59.4859 85.7279 59.1459 85.7279 58.7276V43.1688C85.729 42.4616 84.8525 42.1444 84.3909 42.6799Z" fill="white"/>
<path d="M89.1921 37.8776H85.7279V31.6211H80.2684V41.7465C80.2684 43.511 79.933 45.2562 79.3009 46.9025C78.9598 47.7881 78.6153 48.7613 78.2697 49.8312C75.9561 56.9836 72.6419 57.303 72.4475 57.303C69.9293 57.303 67.2416 55.0337 67.2416 48.7363C67.2416 41.319 70.3897 40.7597 70.3897 40.7597H76.9793V37.989H70.0122C65.468 37.989 61.7832 41.6738 61.7832 46.218V48.7375C61.7832 57.7203 68.2477 59.4859 72.1099 59.4859C74.2552 59.4859 76.238 58.2308 77.4682 56.5243C78.0992 55.6465 78.3902 54.6813 78.7825 53.6979C79.285 52.4393 79.7682 51.1728 80.2684 49.9119C82.0432 45.4472 84.0908 40.7608 85.7279 40.7608H88.1655C88.95 40.7608 89.7242 40.9893 90.3438 41.4612C91.4216 42.2786 92.6507 44.0397 92.6507 47.8143V59.4848H98.1124C98.1124 59.4848 98.1124 47.8143 98.1056 47.8143C98.001 43.5986 96.4514 37.8776 89.1921 37.8776Z" fill="white"/>
<path d="M105.453 35.5447C106.053 34.0979 105.366 32.4392 103.919 31.8399C102.472 31.2407 100.813 31.9277 100.214 33.3745C99.6147 34.8213 100.302 36.48 101.749 37.0792C103.195 37.6785 104.854 36.9915 105.453 35.5447Z" fill="white"/>
<path d="M105.669 38.8359H99.998V59.3608H105.669V38.8359Z" fill="white"/>
<path d="M54.3218 37.1421H48.3018C46.8556 37.1421 45.6652 38.2313 45.5061 39.6342C45.5061 39.641 45.5061 39.6467 45.5038 39.6524C45.3355 41.0588 46.2746 42.3924 47.656 42.6994C48.9191 42.9802 50.0822 42.4117 50.6848 41.4556C51.1191 40.7655 51.8114 40.2982 52.588 40.1106C54.0148 40.463 55.0721 41.7523 55.0721 43.2883V45.4098H53.3099C48.9589 45.4098 43.9121 47.6711 43.9121 53.8514C43.9121 57.7386 45.7096 59.9999 49.5342 59.9999C51.9592 59.9999 53.942 59.0472 55.0721 58.3491V59.4201H60.7295V43.5498C60.7295 40.0105 57.861 37.1421 54.3218 37.1421ZM55.0721 56.5801C54.5105 57.0121 53.7363 57.4623 52.7903 57.651C51.4226 57.9205 49.3 57.3895 49.3 53.3273C49.3 53.2023 49.3045 53.0795 49.3114 52.9578C49.4546 50.3088 51.7364 48.2817 54.3854 48.2817H55.0721V56.5801Z" fill="white"/>
<path d="M137.377 55.9981C135.97 55.4013 134.984 54.1472 134.378 52.5737C133.354 53.3434 132.213 54.2552 131.023 55.3046C132.752 57.392 134.878 58.6619 136.302 59.0053C142.706 60.5458 144.427 58.5755 144.427 58.5755V54.0688C144.427 54.0688 141.832 57.8877 137.377 55.9981Z" fill="white"/>
<path d="M138.756 48.9205C143.409 46.7286 145.097 44.4922 145.267 42.431C145.35 41.4362 145.079 40.4834 144.619 39.5955C143.204 36.8658 138.342 37.0272 138.342 37.0272C138.342 37.0272 130.456 36.801 128.637 43.5588C127.597 47.4232 128.241 50.6521 129.573 53.1465C127.646 54.4767 126.293 55.4169 126.293 55.4169V47.2345H126.285C126.177 42.8551 127.821 37.0272 119.33 37.0272C117.107 37.0272 115.583 38.2789 114.544 39.8672V37.0272H108.873V59.3609H114.544V43.5258C115.342 40.4709 117.291 39.9059 117.291 39.9059C117.291 39.9059 120.503 38.9145 120.619 47.2345V59.3609H126.293C127.737 57.6794 129.244 56.1832 130.692 54.8848C131.924 53.7786 133.112 52.8168 134.181 52.0073C136.839 49.9927 138.756 48.9205 138.756 48.9205ZM138.342 38.8224C142.628 37.3944 143.7 43.6054 139.332 46.5034C137.726 47.5699 135.728 48.9251 133.783 50.2553C133.078 45.5575 134.845 39.7263 138.342 38.8224Z" fill="white"/>
<path d="M155.143 45.9113C152.624 44.547 150.11 43.1974 150.11 41.0987C150.11 38.9999 153.113 39.1454 153.113 39.1454H158.541V37.0273H151.365C149.158 37.0273 146.117 37.0273 146.117 41.9172C146.117 45.3462 151.829 49.2891 154.415 51.6277C157 53.9652 155.409 57.2134 151.101 57.2134C150.562 57.2134 150.069 57.152 149.619 57.0451C149.617 57.0451 149.613 57.0451 149.61 57.0429C148.5 56.7234 147.108 55.8468 146.704 53.4945C146.603 52.9079 146.614 52.4247 146.706 52.029C146.819 52.718 147.416 53.2421 148.135 53.2421C148.936 53.2421 149.585 52.5941 149.585 51.7937C149.585 51.1127 149.115 50.5419 148.483 50.3862C148.035 50.2757 147.574 50.3862 147.574 50.3862C146.38 50.7068 144.238 52.9022 145.422 56.3846C147.062 61.6213 159.625 61.7043 160.248 52.992C160.517 49.2333 157.663 47.2756 155.143 45.9113Z" fill="white"/>
<path d="M148.389 32.1053C146.996 31.5141 146.015 30.2772 145.409 28.7241C144.386 29.4995 143.254 30.4147 142.078 31.4618C143.797 33.5197 145.902 34.7725 147.315 35.1125C153.719 36.653 155.439 34.6827 155.439 34.6827V30.1748C155.439 30.1748 152.846 33.9938 148.389 32.1053Z" fill="white"/>
</g>
<path d="M25.0761 5.64256L23.439 5.44928C23.1729 5.41745 22.9353 5.27647 22.7807 5.05932L20.0271 1.17673C19.7974 0.851567 19.3881 0.707178 19.0038 0.815185L13.7842 2.28977C13.4011 2.39778 13.1271 2.73545 13.1009 3.13223L12.7849 7.87889C12.7667 8.14493 12.6382 8.38936 12.429 8.55535L10.5326 10.0504C10.3246 10.2153 10.0551 10.2835 9.79248 10.238L5.10381 9.44102C4.71157 9.37508 4.31934 9.56267 4.12492 9.90943L1.47703 14.6436C1.28262 14.9903 1.32809 15.4224 1.58959 15.7225L4.72181 19.3004C4.89803 19.5005 4.97989 19.7654 4.94805 20.0315L4.66496 22.4315C4.63313 22.6964 4.49101 22.934 4.275 23.0875L0.395817 25.8389C0.0717941 26.0696 -0.0725951 26.4789 0.0354125 26.8632L1.51 32.0817C1.61801 32.466 1.95567 32.7388 2.35246 32.765L7.10139 33.081C7.36629 33.0992 7.61187 33.2277 7.77786 33.4369L9.27177 35.3321C9.43663 35.5413 9.50598 35.8097 9.4605 36.0723L8.66238 40.7621C8.59644 41.1555 8.78403 41.5466 9.13079 41.741L13.8649 44.39C14.2117 44.5833 14.6437 44.539 14.9439 44.2763L16.4025 42.9996C16.2786 40.4949 16.0444 38.0812 15.6783 35.6789C12.504 33.9155 10.0051 30.9368 8.93979 27.1656C6.81829 19.6529 11.1875 11.8422 18.7003 9.71956C21.1117 9.03855 23.5549 9.02604 25.8299 9.5729C25.6389 8.16653 25.3911 6.84656 25.0761 5.64256Z" fill="#FF8855"/>
<path d="M24.2895 20.5348L24.2907 11.8237H22.1203V20.5348C20.9925 20.9703 20.1909 22.0651 20.1909 23.3476C20.1909 23.7819 20.2842 24.1957 20.449 24.5686L15.5762 29.4415L17.111 30.9763L21.9839 26.1035C22.3568 26.2695 22.7706 26.3616 23.2049 26.3616C24.8694 26.3616 26.2189 25.012 26.2189 23.3476C26.2189 22.0651 25.4185 20.9714 24.2895 20.5348Z" fill="#FF8855"/>
<g clip-path="url(#clip1_462_1066)">
<path fill-rule="evenodd" clip-rule="evenodd" d="M176.266 16H220.266V60H176.266V16Z" fill="#D52B1E"/>
<path fill-rule="evenodd" clip-rule="evenodd" d="M184.516 33.8755H212.016V42.1255H184.516V33.8755Z" fill="white"/>
<path fill-rule="evenodd" clip-rule="evenodd" d="M194.141 24.2505H202.391V51.7505H194.141V24.2505Z" fill="white"/>
</g>
<defs>
<clipPath id="clip0_462_1066">
<rect width="160.265" height="60" fill="white"/>
</clipPath>
<clipPath id="clip1_462_1066">
<rect x="176.266" y="16" width="44" height="44" rx="22" fill="white"/>
</clipPath>
</defs>
</svg>
