<?xml version="1.0" standalone="no"?>
<!DOCTYPE svg PUBLIC "-//W3C//DTD SVG 20010904//EN"
 "http://www.w3.org/TR/2001/REC-SVG-20010904/DTD/svg10.dtd">
<svg version="1.0" xmlns="http://www.w3.org/2000/svg"
 width="1334.000000pt" height="1334.000000pt" viewBox="0 0 1334.000000 1334.000000"
 preserveAspectRatio="xMidYMid meet">
<metadata>
Created by potrace 1.14, written by Peter Selinger 2001-2017
</metadata>
<g transform="translate(0.000000,1334.000000) scale(0.100000,-0.100000)"
fill="#000000" stroke="none">
<path d="M2555 9757 c-33 -10 -71 -21 -85 -23 -14 -3 -44 -11 -67 -19 -23 -8
-52 -17 -65 -20 -25 -5 -199 -54 -288 -80 -30 -9 -80 -23 -110 -31 -120 -33
-133 -56 -145 -259 -3 -49 -7 -119 -10 -155 -5 -85 -14 -217 -20 -310 -3 -41
-10 -87 -16 -101 -10 -27 -257 -232 -321 -267 -18 -10 -44 -17 -58 -16 -37 4
-102 13 -130 19 -14 3 -38 8 -55 11 -102 17 -153 26 -175 30 -14 2 -41 7 -60
10 -48 7 -149 24 -180 30 -130 25 -180 3 -230 -101 -10 -22 -36 -69 -56 -105
-20 -36 -43 -76 -51 -90 -8 -14 -24 -43 -37 -65 -94 -165 -109 -192 -161 -290
-60 -111 -60 -160 -1 -220 11 -12 39 -44 61 -70 22 -27 49 -58 60 -69 11 -12
47 -53 80 -91 33 -39 64 -75 70 -81 173 -187 177 -194 171 -289 -3 -44 -8 -96
-11 -115 -2 -19 -7 -59 -11 -90 -3 -30 -7 -66 -9 -80 -2 -14 -3 -32 -4 -42 -1
-18 -99 -118 -116 -118 -3 0 -94 -63 -202 -141 -109 -77 -209 -148 -223 -157
-47 -33 -89 -79 -96 -107 -7 -29 10 -108 56 -260 11 -38 22 -79 24 -90 2 -11
21 -76 41 -145 20 -69 39 -132 40 -140 22 -90 52 -178 69 -198 36 -41 55 -46
231 -56 55 -4 136 -9 180 -12 44 -3 105 -7 135 -9 239 -15 259 -19 296 -70 10
-15 24 -33 31 -40 35 -36 169 -214 184 -243 10 -18 16 -43 14 -55 -2 -12 -9
-49 -14 -82 -6 -33 -13 -78 -16 -100 -4 -22 -8 -47 -10 -55 -2 -8 -7 -37 -10
-65 -4 -27 -9 -59 -13 -70 -3 -11 -7 -29 -8 -40 -2 -11 -5 -31 -7 -45 -2 -14
-8 -47 -12 -75 -8 -50 -10 -63 -21 -122 -6 -34 11 -99 32 -120 12 -13 135 -83
454 -261 238 -132 260 -143 288 -144 54 -1 58 2 261 181 35 31 82 72 105 91
22 19 47 42 56 50 8 8 42 38 75 65 33 28 61 53 63 57 2 4 19 17 39 29 35 22
88 26 153 14 14 -3 56 -8 94 -11 38 -3 79 -8 90 -10 12 -2 41 -7 65 -10 74 -9
76 -12 266 -284 46 -66 67 -95 113 -156 17 -24 32 -48 32 -53 0 -5 3 -11 8
-13 4 -1 26 -29 50 -60 58 -78 90 -88 198 -59 43 12 86 23 94 25 8 2 49 14 90
26 41 11 82 23 90 25 8 1 47 12 85 24 59 17 100 28 170 47 6 2 40 12 77 22
156 47 159 52 173 277 3 55 8 127 10 160 5 53 10 134 19 285 l3 45 -212 213
c-117 116 -215 212 -219 212 -4 0 -40 -15 -79 -34 -67 -31 -105 -48 -117 -50
-3 -1 -30 -11 -60 -23 -48 -19 -140 -47 -192 -59 -112 -25 -215 -42 -303 -49
-142 -12 -329 -5 -450 16 -33 5 -71 12 -85 14 -149 25 -347 94 -505 175 -110
57 -135 71 -153 88 -7 6 -18 12 -23 12 -6 0 -16 6 -23 13 -8 6 -24 19 -36 27
-130 86 -328 275 -426 406 -33 44 -62 81 -66 82 -5 2 -8 10 -8 18 0 8 -4 14
-10 14 -5 0 -10 4 -10 9 0 5 -18 39 -41 76 -239 394 -327 907 -234 1365 22
110 22 109 44 180 38 126 44 143 120 300 54 113 82 163 94 168 4 2 7 7 7 12 0
7 54 92 78 121 6 8 37 46 68 84 82 102 219 232 335 320 57 42 110 79 118 82 9
4 23 12 32 19 15 14 245 134 254 134 3 0 20 6 38 13 56 24 215 73 302 93 17 4
35 8 40 10 22 5 102 17 135 20 19 1 35 4 35 4 0 5 132 10 225 10 137 -1 249
-11 333 -30 35 -7 37 -6 34 14 -2 11 -9 34 -15 49 -7 16 -12 32 -12 36 0 5
-12 44 -26 87 -14 43 -27 86 -29 94 -2 8 -15 53 -30 100 -15 47 -28 90 -30 95
-10 47 -26 65 -57 66 -80 2 -122 21 -161 76 -63 87 -103 142 -117 163 -8 12
-47 68 -87 124 -40 55 -82 116 -95 134 -113 161 -136 172 -273 129z"/>
<path d="M3220 9750 c1 -3 23 -30 50 -60 28 -30 71 -86 98 -125 26 -38 50 -72
53 -75 11 -10 108 -218 132 -285 41 -113 89 -273 100 -330 2 -11 6 -27 10 -35
10 -30 49 -208 63 -295 29 -185 39 -257 49 -355 1 -19 6 -57 9 -85 6 -47 9
-85 23 -320 14 -219 7 -869 -11 -1145 -3 -30 -7 -98 -10 -151 -4 -53 -8 -116
-11 -140 -2 -24 -7 -78 -10 -119 -3 -41 -8 -91 -10 -110 -2 -19 -6 -72 -10
-117 -3 -46 -8 -93 -10 -105 -3 -12 -7 -51 -10 -87 -3 -36 -7 -77 -10 -91 -3
-14 -7 -50 -10 -80 -2 -30 -7 -66 -9 -80 -3 -14 -8 -52 -11 -85 -14 -130 -16
-145 -36 -283 -6 -40 -9 -79 -6 -85 6 -15 966 -17 968 -2 1 9 -12 102 -16 115
-3 12 -16 67 -20 89 -5 26 -62 215 -72 241 -9 21 -9 21 -18 65 -4 22 -9 49
-12 60 -14 70 -26 224 -38 475 -5 106 -5 557 0 665 3 50 7 122 9 160 3 39 6
91 7 118 1 26 7 47 13 48 6 0 91 1 188 2 152 0 184 -2 223 -18 25 -11 45 -23
45 -27 0 -4 7 -8 16 -8 32 0 194 -148 274 -250 20 -25 53 -72 75 -105 22 -33
42 -62 45 -65 24 -24 245 -475 242 -492 -1 -5 3 -8 8 -8 6 0 10 -6 10 -12 0
-7 14 -40 30 -73 17 -33 30 -65 30 -72 0 -7 5 -13 10 -13 6 0 10 -7 10 -15 0
-8 4 -23 10 -33 5 -9 30 -62 56 -117 70 -155 75 -164 128 -260 166 -303 358
-476 556 -502 19 -3 52 -8 72 -13 44 -9 307 -6 358 5 86 18 270 104 270 126 0
5 5 9 11 9 12 0 109 89 109 100 0 4 -21 13 -47 21 -52 14 -166 68 -171 81 -2
4 -8 8 -14 8 -34 0 -244 196 -323 303 -26 34 -52 69 -58 77 -13 17 -70 102
-109 165 -22 35 -61 109 -210 395 -12 25 -26 47 -30 48 -5 2 -8 7 -8 12 0 16
-208 351 -229 370 -4 3 -20 23 -36 45 -51 69 -68 87 -160 180 -112 112 -222
179 -329 201 -33 6 -27 10 55 37 44 15 113 42 152 60 40 18 77 35 82 37 6 2
15 8 20 12 6 5 44 30 86 57 140 89 282 249 342 382 24 53 48 119 46 129 0 3 5
19 11 35 6 17 14 50 18 75 8 62 8 306 0 355 -4 22 -9 58 -13 80 -3 22 -7 51
-10 65 -3 14 -8 36 -10 50 -3 14 -7 36 -10 50 -4 14 -8 36 -11 50 -2 14 -7 32
-10 40 -3 8 -8 25 -10 37 -8 42 -62 198 -88 255 -14 31 -30 67 -36 80 -5 13
-21 41 -35 63 -14 22 -28 47 -32 55 -13 30 -107 146 -162 200 -61 60 -164 140
-181 140 -5 0 -10 4 -10 8 0 11 -134 74 -213 101 -79 27 -198 55 -282 66 -11
2 -38 6 -60 9 -22 4 -80 9 -130 12 -112 8 -1805 11 -1805 4z m1805 -415 c102
-15 229 -66 324 -131 49 -33 149 -133 156 -156 4 -10 10 -18 15 -18 10 0 95
-174 105 -215 3 -16 6 -30 4 -30 -1 0 2 -9 8 -20 6 -11 14 -42 17 -70 4 -27
10 -66 15 -85 8 -40 6 -280 -3 -325 -3 -16 -9 -46 -12 -65 -6 -35 -27 -101
-47 -150 -5 -14 -11 -30 -13 -37 -3 -19 -75 -134 -104 -168 -55 -65 -124 -126
-186 -166 -94 -62 -251 -127 -362 -149 -26 -6 -56 -12 -67 -15 -51 -11 -122
-16 -262 -20 -117 -4 -153 -2 -154 8 -3 22 -5 1812 -3 1817 3 8 513 4 569 -5z"/>
<path d="M6455 9752 c-259 -26 -431 -285 -351 -529 35 -105 117 -199 211 -242
83 -38 221 -48 291 -21 16 7 38 14 49 16 11 2 21 8 23 14 2 5 10 10 18 10 16
0 144 124 144 140 0 12 34 53 80 97 33 31 108 73 156 87 22 7 120 18 144 17 8
-1 34 -2 58 -2 31 -1 42 -5 43 -18 1 -9 2 -956 3 -2106 2 -1149 4 -2095 4
-2100 1 -7 140 -10 407 -10 l405 -1 0 56 c0 30 2 984 3 2120 2 1740 4 2065 16
2062 7 -1 57 -4 110 -6 159 -6 267 -62 345 -181 93 -140 197 -203 343 -210
365 -16 561 415 310 682 -57 61 -138 105 -222 120 -24 5 -2547 9 -2590 5z"/>
<path d="M9380 9750 c1 -3 7 -33 14 -67 7 -35 11 -63 9 -63 -3 0 -1 -6 5 -12
6 -7 10 -15 10 -18 -1 -6 12 -95 18 -123 12 -56 27 -135 31 -162 8 -63 11 -80
13 -80 1 0 3 -11 5 -25 6 -55 16 -116 20 -130 2 -8 6 -37 10 -65 7 -56 22
-170 31 -230 3 -22 8 -60 9 -85 2 -25 4 -45 5 -45 2 0 7 -39 14 -125 4 -41 9
-88 11 -105 2 -16 7 -66 10 -110 3 -44 8 -102 10 -130 4 -49 8 -105 21 -355 9
-165 10 -446 1 -540 -11 -116 -18 -182 -23 -220 -2 -19 -6 -60 -9 -90 -3 -30
-7 -68 -10 -85 -2 -16 -9 -68 -15 -115 -5 -47 -12 -94 -14 -105 -2 -11 -9 -56
-16 -100 -14 -101 -17 -114 -24 -145 -4 -14 -8 -38 -11 -55 -9 -68 -15 -101
-35 -193 -22 -104 -77 -327 -87 -352 -3 -8 -7 -22 -8 -30 -11 -79 -183 -480
-206 -480 -5 0 -9 -6 -9 -13 0 -38 -158 -177 -202 -177 -10 0 -18 -4 -18 -8 0
-4 247 -8 549 -8 l549 1 17 37 c24 56 92 259 110 330 9 35 19 70 22 78 3 8 7
20 9 27 1 7 9 40 18 75 8 35 17 74 20 88 3 14 14 72 25 130 12 58 24 127 27
155 3 27 7 52 9 55 2 3 6 37 10 75 4 39 9 78 11 88 2 10 6 53 9 95 4 42 9 91
11 107 17 133 23 679 11 920 -11 189 -16 264 -21 315 -3 25 -7 70 -11 100 -3
30 -8 75 -10 99 -4 42 -7 64 -20 161 -9 62 1 47 20 -30 9 -36 20 -78 25 -95 4
-16 20 -73 34 -125 15 -52 29 -104 32 -115 3 -11 7 -27 9 -35 1 -8 5 -22 8
-30 3 -8 26 -91 51 -185 25 -93 50 -186 56 -205 46 -162 62 -218 65 -235 2
-11 12 -51 23 -90 25 -86 67 -236 92 -330 10 -38 34 -126 53 -195 19 -69 38
-138 42 -155 5 -16 9 -34 11 -40 1 -5 12 -44 23 -85 26 -93 35 -125 62 -219
11 -41 22 -81 24 -90 2 -9 20 -74 40 -146 20 -71 38 -139 40 -150 3 -11 14
-51 25 -90 12 -38 23 -78 25 -88 2 -10 7 -27 10 -37 3 -10 8 -27 10 -38 7 -37
29 -107 36 -118 6 -7 94 -10 260 -10 l252 1 19 65 c11 36 26 88 35 115 8 28
16 55 17 60 6 24 27 101 33 115 3 8 7 22 8 30 2 8 28 101 59 205 31 105 59
199 61 209 3 10 9 33 15 51 6 18 12 41 14 51 2 10 14 52 26 91 12 40 21 74 19
75 -1 2 3 12 9 24 6 11 13 33 16 47 2 15 10 41 16 59 19 57 62 213 63 226 0 6
3 12 7 12 3 0 6 9 7 19 1 11 11 52 23 93 13 40 22 73 21 73 0 0 6 23 15 50 16
50 52 176 60 205 2 8 15 53 29 100 14 47 39 130 55 185 15 55 40 141 55 190
15 50 28 97 30 105 6 24 30 104 74 252 23 75 41 143 41 152 0 9 4 16 8 16 5 0
9 6 9 13 0 12 48 181 76 267 13 40 15 -137 16 -1555 l1 -1601 393 1 392 0 1
2315 c0 1273 -1 2320 -3 2325 -3 10 -778 15 -786 5 -3 -4 -58 -200 -62 -220
-2 -10 -26 -95 -36 -125 -19 -62 -51 -171 -54 -185 -4 -20 -54 -181 -62 -200
-3 -8 -7 -19 -9 -25 -15 -62 -181 -522 -223 -620 -10 -22 -26 -60 -36 -85 -10
-25 -24 -58 -31 -75 -7 -16 -21 -52 -32 -80 -11 -27 -33 -79 -50 -115 -16 -36
-44 -99 -62 -140 -18 -41 -56 -124 -85 -185 -28 -60 -53 -114 -55 -120 -2 -5
-25 -54 -52 -107 -26 -53 -48 -101 -48 -106 0 -6 -5 -12 -11 -14 -5 -2 -11
-10 -13 -18 -3 -14 -67 -147 -86 -180 -5 -8 -18 -33 -28 -55 -84 -175 -122
-231 -122 -180 0 8 -11 39 -25 69 -14 30 -25 59 -25 64 0 8 -40 113 -60 157
-5 11 -25 65 -46 120 -20 55 -46 127 -59 160 -31 82 -38 98 -41 110 -2 6 -33
87 -69 180 -36 94 -73 190 -82 215 -8 25 -19 50 -23 55 -4 6 -10 23 -14 40 -4
16 -15 47 -25 70 -10 22 -32 81 -51 130 -18 50 -38 104 -45 120 -22 53 -89
230 -91 240 -1 6 -30 82 -64 170 -34 88 -79 205 -100 260 -20 55 -41 109 -45
120 -5 11 -9 22 -10 25 -1 3 -7 19 -14 35 -7 17 -22 59 -33 95 -77 247 -180
367 -338 396 -48 8 -750 12 -750 4z"/>
<path d="M2956 8330 c-2 -3 -2 -285 -2 -627 l1 -622 -40 -18 c-64 -29 -157
-123 -192 -196 -50 -101 -59 -190 -31 -299 l18 -73 -350 -350 -350 -350 105
-105 c57 -58 108 -106 113 -108 6 -2 165 153 355 343 190 190 352 345 362 345
9 0 24 -4 33 -9 10 -5 38 -13 62 -17 138 -21 277 25 376 125 205 205 158 536
-96 685 l-53 31 0 625 0 626 -154 0 c-85 0 -156 -3 -157 -6z"/>
</g>
</svg>
