<svg width="120" height="48" viewBox="0 0 120 48" fill="none" xmlns="http://www.w3.org/2000/svg">
<path d="M39.8036 20.9536C39.8036 18.9064 37.8185 16.7347 34.3769 16.7347C30.5105 16.7347 26.2697 19.5652 25.6133 25.2212C24.9508 30.9395 28.511 33.4663 32.0881 33.4663C35.664 33.4663 37.5465 32.0729 39.4583 30.2051C37.8076 28.1261 35.6786 29.0936 35.276 29.2962C34.8307 29.5194 34.2463 29.8281 33.0592 29.8281C31.6733 29.8281 30.2677 29.201 30.2677 26.6279C39.1276 25.7788 39.8036 23.002 39.8036 20.9536ZM35.4127 21.2964C35.3553 21.9272 35.0966 23.0191 30.6131 23.6194C31.5586 20.2618 33.3618 20.0129 34.195 20.0129C34.9759 20.0129 35.4736 20.618 35.4127 21.2964ZM20.4062 21.8417C20.4062 21.8417 18.5006 27.8175 18.3529 28.3189C18.3017 27.8175 16.9072 17.0837 16.9072 17.0837C13.6618 17.0837 11.9257 19.3895 11.0107 21.8393C11.0107 21.8393 8.69265 27.8321 8.50478 28.3336C8.49382 27.8638 8.14853 21.9016 8.14853 21.9016C7.9521 18.9051 5.2168 17.0909 3 17.0909L5.66578 33.3528C9.07088 33.3418 10.8936 31.0396 11.855 28.5947C11.855 28.5947 13.8937 23.307 13.9779 23.0667C13.9986 23.2961 15.4444 33.3528 15.4444 33.3528C18.8519 33.3528 20.6905 31.197 21.68 28.8399L26.4613 17.0909C23.094 17.0909 21.3212 19.3907 20.4062 21.8417ZM52.3186 16.7127C50.2239 16.7127 48.6097 17.851 47.2507 19.5334L47.2531 19.5212L48.461 9.75C45.6719 9.75 43.3929 12.1779 42.9598 15.7794L40.8382 33.2259C42.4474 33.2259 44.1518 32.7586 45.0716 31.5764C45.8952 32.6341 47.1189 33.4772 48.9306 33.4772C53.6339 33.4772 56.867 28.0103 56.867 22.8776C56.867 18.1939 54.5879 16.7127 52.3186 16.7127ZM51.8868 25.0944C51.3988 27.9639 49.8042 29.8988 48.2596 29.8988C46.7029 29.8988 46.0453 29.2108 46.0453 29.2108C46.3356 26.7024 46.5284 25.1639 47.0957 23.839C47.6618 22.514 49.0002 20.3997 50.4007 20.3997C51.7623 20.3997 52.3748 22.2261 51.8868 25.0944ZM68.6574 17.0922H65.3645L65.3803 16.9201C65.6048 14.7704 66.1197 13.6419 67.7863 13.4687C68.9245 13.3516 69.4394 12.7598 69.559 12.1205C69.6529 11.6191 69.9713 9.84637 69.9713 9.84637C63.3661 9.80857 61.2957 12.6598 60.7674 16.9934L60.7552 17.0909L60.6905 17.0934C59.6181 17.0934 58.4408 18.3074 58.2346 19.8494L58.1627 20.4167H60.3587L58.5152 35.6782L57.9565 38.4208L58.1833 38.4281C61.2664 38.311 63.2502 35.8795 63.6882 32.3389L65.1278 20.4167H66.16C67.1702 20.4167 68.3572 19.4042 68.5769 17.7119L68.6574 17.0922ZM85.7453 16.8092C81.951 16.8092 78.375 19.6018 77.2755 23.9951C76.1775 28.3873 77.847 33.5736 83.4232 33.5736C89.0018 33.5736 92.2065 28.1676 92.2065 23.6792C92.2065 19.1882 89.1712 16.8092 85.7453 16.8092ZM87.2835 24.9638C87.087 26.9561 86.2088 29.966 83.808 29.966C81.3968 29.966 81.7395 26.434 81.9727 24.7577C82.2233 22.9605 83.2327 20.4167 85.3815 20.4167C87.3225 20.4167 87.5055 22.714 87.2835 24.9638ZM110.944 21.8417C110.944 21.8417 109.038 27.8175 108.892 28.3189C108.839 27.8175 107.445 17.0837 107.445 17.0837C104.2 17.0837 102.464 19.3895 101.548 21.8393C101.548 21.8393 99.2318 27.8321 99.0435 28.3336C99.0322 27.8638 98.6872 21.9016 98.6872 21.9016C98.4907 18.9051 95.754 17.0909 93.5385 17.0909L96.2032 33.3528C99.6082 33.3418 101.432 31.0396 102.394 28.5947C102.394 28.5947 104.432 23.307 104.516 23.0667C104.537 23.2961 105.982 33.3528 105.982 33.3528C109.39 33.3528 111.228 31.197 112.217 28.8399L117 17.0909C113.632 17.0909 111.859 19.3907 110.944 21.8417ZM71.7563 9.84637L68.9917 32.1437L68.9843 32.1401L68.4231 34.8974L68.6488 34.9046C71.6257 34.868 73.7376 32.256 74.1353 28.9618L75.732 16.1637C76.2165 12.2657 73.8926 9.84637 71.7563 9.84637Z" fill="white"/>
</svg>
